<?xml version="1.0" encoding="UTF-8" standalone="no"?>
<!DOCTYPE svg PUBLIC "-//W3C//DTD SVG 1.1//EN"
 "http://www.w3.org/Graphics/SVG/1.1/DTD/svg11.dtd">
<!-- Generated by graphviz version 2.38.0 (20140413.2041)
 -->
<!-- Title: ToscaDiagram Pages: 1 -->
<svg width="1632pt" height="761pt"
 viewBox="0.00 0.00 1632.00 761.00" xmlns="http://www.w3.org/2000/svg" xmlns:xlink="http://www.w3.org/1999/xlink">
<g id="graph0" class="graph" transform="scale(1 1) rotate(0) translate(4 757)">
<title>ToscaDiagram</title>
<polygon fill="white" stroke="none" points="-4,4 -4,-757 1628,-757 1628,4 -4,4"/>
<g id="clust1" class="cluster"><title>clusterwordpress</title>
<polygon fill="none" stroke="white" points="8,-411 8,-571 396,-571 396,-411 8,-411"/>
</g>
<g id="clust2" class="cluster"><title>clustermysqldb</title>
<polygon fill="none" stroke="white" points="416,-345 416,-457 834,-457 834,-345 416,-345"/>
</g>
<g id="clust3" class="cluster"><title>clustermysqldbms</title>
<polygon fill="none" stroke="white" points="859.5,-194 859.5,-306 1210,-306 1210,-194 859.5,-194"/>
</g>
<g id="clust4" class="cluster"><title>clusterphp</title>
<polygon fill="none" stroke="white" points="428.5,-633 428.5,-745 831.5,-745 831.5,-633 428.5,-633"/>
</g>
<g id="clust5" class="cluster"><title>clusterapache</title>
<polygon fill="none" stroke="white" points="422,-465 422,-625 831.5,-625 831.5,-465 422,-465"/>
</g>
<g id="clust6" class="cluster"><title>clusterappserver</title>
<polygon fill="none" stroke="white" points="854,-314 854,-636 1228,-636 1228,-314 854,-314"/>
</g>
<g id="clust7" class="cluster"><title>clusterdbserver</title>
<polygon fill="none" stroke="white" points="1248,-8 1248,-276 1616,-276 1616,-8 1248,-8"/>
</g>
<!-- wordpress -->
<g id="node1" class="node"><title>wordpress</title>
<path fill="none" stroke="black" d="M157,-443.5C157,-443.5 276,-443.5 276,-443.5 282,-443.5 288,-449.5 288,-455.5 288,-455.5 288,-526.5 288,-526.5 288,-532.5 282,-538.5 276,-538.5 276,-538.5 157,-538.5 157,-538.5 151,-538.5 145,-532.5 145,-526.5 145,-526.5 145,-455.5 145,-455.5 145,-449.5 151,-443.5 157,-443.5"/>
<text text-anchor="middle" x="216.5" y="-523.3" font-family="Times,serif" font-size="14.00">wordpress: WordPress</text>
<polyline fill="none" stroke="black" points="145,-515.5 288,-515.5 "/>
</g>
<!-- wordpress_requirement_host -->
<g id="node3" class="node"><title>wordpress_requirement_host</title>
<polygon fill="turquoise" stroke="black" points="371,-503 329,-503 329,-479 371,-479 383,-491 371,-503"/>
<text text-anchor="middle" x="356" y="-487.3" font-family="Times,serif" font-size="14.00">host</text>
</g>
<!-- wordpress&#45;&#45;wordpress_requirement_host -->
<g id="edge2" class="edge"><title>wordpress&#45;&#45;wordpress_requirement_host</title>
<path fill="none" stroke="black" d="M288.264,-491C302.74,-491 317.098,-491 328.765,-491"/>
</g>
<!-- wordpress_requirement_database -->
<g id="node4" class="node"><title>wordpress_requirement_database</title>
<polygon fill="turquoise" stroke="black" points="376,-449 324,-449 324,-425 376,-425 388,-437 376,-449"/>
<text text-anchor="middle" x="356" y="-433.3" font-family="Times,serif" font-size="14.00">database</text>
</g>
<!-- wordpress&#45;&#45;wordpress_requirement_database -->
<g id="edge3" class="edge"><title>wordpress&#45;&#45;wordpress_requirement_database</title>
<path fill="none" stroke="black" d="M288.264,-463.209C300.766,-458.299 313.18,-453.424 323.849,-449.234"/>
</g>
<!-- wordpress_requirement_php -->
<g id="node5" class="node"><title>wordpress_requirement_php</title>
<polygon fill="turquoise" stroke="black" points="371,-557 329,-557 329,-533 371,-533 383,-545 371,-557"/>
<text text-anchor="middle" x="356" y="-541.3" font-family="Times,serif" font-size="14.00">php</text>
</g>
<!-- wordpress&#45;&#45;wordpress_requirement_php -->
<g id="edge4" class="edge"><title>wordpress&#45;&#45;wordpress_requirement_php</title>
<path fill="none" stroke="black" d="M288.264,-518.791C302.74,-524.476 317.098,-530.115 328.765,-534.697"/>
</g>
<!-- wordpress_capability_app_endpoint -->
<g id="node2" class="node"><title>wordpress_capability_app_endpoint</title>
<polygon fill="orange" stroke="black" points="97,-503 16,-503 16,-479 97,-479 109,-491 97,-503"/>
<text text-anchor="middle" x="62.5" y="-487.3" font-family="Times,serif" font-size="14.00">app_endpoint</text>
</g>
<!-- wordpress_capability_app_endpoint&#45;&#45;wordpress -->
<g id="edge1" class="edge"><title>wordpress_capability_app_endpoint&#45;&#45;wordpress</title>
<path fill="none" stroke="black" d="M109.105,-491C120.386,-491 132.736,-491 144.901,-491"/>
</g>
<!-- apache_capability_host -->
<g id="node19" class="node"><title>apache_capability_host</title>
<polygon fill="orange" stroke="black" points="498.5,-503 456.5,-503 456.5,-479 498.5,-479 510.5,-491 498.5,-503"/>
<text text-anchor="middle" x="483.5" y="-487.3" font-family="Times,serif" font-size="14.00">host</text>
</g>
<!-- wordpress_requirement_host&#45;&#45;apache_capability_host -->
<g id="edge29" class="edge"><title>wordpress_requirement_host&#45;&#45;apache_capability_host</title>
<path fill="none" stroke="black" stroke-dasharray="1,5" d="M383.004,-491C404.399,-491 434.594,-491 456.098,-491"/>
</g>
<!-- mysqldb_capability_database_endpoint -->
<g id="node7" class="node"><title>mysqldb_capability_database_endpoint</title>
<polygon fill="orange" stroke="black" points="531,-428 424,-428 424,-404 531,-404 543,-416 531,-428"/>
<text text-anchor="middle" x="483.5" y="-412.3" font-family="Times,serif" font-size="14.00">database_endpoint</text>
</g>
<!-- wordpress_requirement_database&#45;&#45;mysqldb_capability_database_endpoint -->
<g id="edge31" class="edge"><title>wordpress_requirement_database&#45;&#45;mysqldb_capability_database_endpoint</title>
<path fill="none" stroke="black" stroke-dasharray="1,5" d="M388.022,-431.809C398.91,-429.987 411.528,-427.876 423.927,-425.801"/>
</g>
<!-- php_capability_attachWebsite -->
<g id="node14" class="node"><title>php_capability_attachWebsite</title>
<polygon fill="orange" stroke="black" points="518.5,-686 436.5,-686 436.5,-662 518.5,-662 530.5,-674 518.5,-686"/>
<text text-anchor="middle" x="483.5" y="-670.3" font-family="Times,serif" font-size="14.00">attachWebsite</text>
</g>
<!-- wordpress_requirement_php&#45;&#45;php_capability_attachWebsite -->
<g id="edge30" class="edge"><title>wordpress_requirement_php&#45;&#45;php_capability_attachWebsite</title>
<path fill="none" stroke="black" stroke-dasharray="1,5" d="M367.088,-563.147C377.7,-581.198 395.663,-609.014 416,-629 426.34,-639.162 439.254,-648.494 450.944,-655.993"/>
</g>
<!-- mysqldb -->
<g id="node6" class="node"><title>mysqldb</title>
<path fill="none" stroke="black" d="M591,-353.5C591,-353.5 719,-353.5 719,-353.5 725,-353.5 731,-359.5 731,-365.5 731,-365.5 731,-436.5 731,-436.5 731,-442.5 725,-448.5 719,-448.5 719,-448.5 591,-448.5 591,-448.5 585,-448.5 579,-442.5 579,-436.5 579,-436.5 579,-365.5 579,-365.5 579,-359.5 585,-353.5 591,-353.5"/>
<text text-anchor="middle" x="655" y="-433.3" font-family="Times,serif" font-size="14.00">mysqldb: WordpressDB</text>
<polyline fill="none" stroke="black" points="579,-425.5 731,-425.5 "/>
</g>
<!-- mysqldb_requirement_host -->
<g id="node8" class="node"><title>mysqldb_requirement_host</title>
<polygon fill="turquoise" stroke="black" points="811.5,-384 769.5,-384 769.5,-360 811.5,-360 823.5,-372 811.5,-384"/>
<text text-anchor="middle" x="796.5" y="-368.3" font-family="Times,serif" font-size="14.00">host</text>
</g>
<!-- mysqldb&#45;&#45;mysqldb_requirement_host -->
<g id="edge6" class="edge"><title>mysqldb&#45;&#45;mysqldb_requirement_host</title>
<path fill="none" stroke="black" d="M731.058,-385.396C744.859,-382.527 758.381,-379.716 769.446,-377.416"/>
</g>
<!-- mysqldb_requirement_connect -->
<g id="node9" class="node"><title>mysqldb_requirement_connect</title>
<polygon fill="turquoise" stroke="black" points="814,-441 767,-441 767,-417 814,-417 826,-429 814,-441"/>
<text text-anchor="middle" x="796.5" y="-425.3" font-family="Times,serif" font-size="14.00">connect</text>
</g>
<!-- mysqldb&#45;&#45;mysqldb_requirement_connect -->
<g id="edge7" class="edge"><title>mysqldb&#45;&#45;mysqldb_requirement_connect</title>
<path fill="none" stroke="black" d="M731.058,-416.065C743.827,-418.628 756.358,-421.143 766.924,-423.264"/>
</g>
<!-- mysqldb_capability_database_endpoint&#45;&#45;mysqldb -->
<g id="edge5" class="edge"><title>mysqldb_capability_database_endpoint&#45;&#45;mysqldb</title>
<path fill="none" stroke="black" d="M543.307,-410.796C554.781,-409.78 566.957,-408.703 578.876,-407.648"/>
</g>
<!-- mysqldbms_capability_host -->
<g id="node11" class="node"><title>mysqldbms_capability_host</title>
<polygon fill="orange" stroke="black" points="909.5,-277 867.5,-277 867.5,-253 909.5,-253 921.5,-265 909.5,-277"/>
<text text-anchor="middle" x="894.5" y="-261.3" font-family="Times,serif" font-size="14.00">host</text>
</g>
<!-- mysqldb_requirement_host&#45;&#45;mysqldbms_capability_host -->
<g id="edge32" class="edge"><title>mysqldb_requirement_host&#45;&#45;mysqldbms_capability_host</title>
<path fill="none" stroke="black" stroke-dasharray="1,5" d="M813.785,-353.849C831.438,-334.173 859.451,-302.951 877.135,-283.24"/>
</g>
<!-- appserver_capability_feature -->
<g id="node22" class="node"><title>appserver_capability_feature</title>
<polygon fill="orange" stroke="black" points="910,-568 867,-568 867,-544 910,-544 922,-556 910,-568"/>
<text text-anchor="middle" x="894.5" y="-552.3" font-family="Times,serif" font-size="14.00">feature</text>
</g>
<!-- mysqldb_requirement_connect&#45;&#45;appserver_capability_feature -->
<g id="edge33" class="edge"><title>mysqldb_requirement_connect&#45;&#45;appserver_capability_feature</title>
<path fill="none" stroke="black" stroke-dasharray="1,5" d="M822.276,-447.258C826.656,-451.384 830.824,-456.029 834,-461 850.96,-487.547 835.476,-503.52 854,-529 857.419,-533.703 861.922,-537.853 866.66,-541.4"/>
</g>
<!-- mysqldbms -->
<g id="node10" class="node"><title>mysqldbms</title>
<path fill="none" stroke="black" d="M976.5,-202.5C976.5,-202.5 1080.5,-202.5 1080.5,-202.5 1086.5,-202.5 1092.5,-208.5 1092.5,-214.5 1092.5,-214.5 1092.5,-285.5 1092.5,-285.5 1092.5,-291.5 1086.5,-297.5 1080.5,-297.5 1080.5,-297.5 976.5,-297.5 976.5,-297.5 970.5,-297.5 964.5,-291.5 964.5,-285.5 964.5,-285.5 964.5,-214.5 964.5,-214.5 964.5,-208.5 970.5,-202.5 976.5,-202.5"/>
<text text-anchor="middle" x="1028.5" y="-282.3" font-family="Times,serif" font-size="14.00">mysqldbms: DBMS</text>
<polyline fill="none" stroke="black" points="964.5,-274.5 1092.5,-274.5 "/>
</g>
<!-- mysqldbms_requirement_host -->
<g id="node12" class="node"><title>mysqldbms_requirement_host</title>
<polygon fill="turquoise" stroke="black" points="1190,-262 1148,-262 1148,-238 1190,-238 1202,-250 1190,-262"/>
<text text-anchor="middle" x="1175" y="-246.3" font-family="Times,serif" font-size="14.00">host</text>
</g>
<!-- mysqldbms&#45;&#45;mysqldbms_requirement_host -->
<g id="edge9" class="edge"><title>mysqldbms&#45;&#45;mysqldbms_requirement_host</title>
<path fill="none" stroke="black" d="M1092.88,-250C1112.29,-250 1132.57,-250 1148,-250"/>
</g>
<!-- mysqldbms_capability_host&#45;&#45;mysqldbms -->
<g id="edge8" class="edge"><title>mysqldbms_capability_host&#45;&#45;mysqldbms</title>
<path fill="none" stroke="black" d="M921.579,-262.036C933.901,-260.636 949.197,-258.898 964.297,-257.182"/>
</g>
<!-- dbserver_capability_host -->
<g id="node30" class="node"><title>dbserver_capability_host</title>
<polygon fill="orange" stroke="black" points="1303.5,-262 1261.5,-262 1261.5,-238 1303.5,-238 1315.5,-250 1303.5,-262"/>
<text text-anchor="middle" x="1288.5" y="-246.3" font-family="Times,serif" font-size="14.00">host</text>
</g>
<!-- mysqldbms_requirement_host&#45;&#45;dbserver_capability_host -->
<g id="edge34" class="edge"><title>mysqldbms_requirement_host&#45;&#45;dbserver_capability_host</title>
<path fill="none" stroke="black" stroke-dasharray="1,5" d="M1202.14,-250C1219.91,-250 1243.32,-250 1261.14,-250"/>
</g>
<!-- php -->
<g id="node13" class="node"><title>php</title>
<path fill="none" stroke="black" d="M630.5,-641.5C630.5,-641.5 679.5,-641.5 679.5,-641.5 685.5,-641.5 691.5,-647.5 691.5,-653.5 691.5,-653.5 691.5,-724.5 691.5,-724.5 691.5,-730.5 685.5,-736.5 679.5,-736.5 679.5,-736.5 630.5,-736.5 630.5,-736.5 624.5,-736.5 618.5,-730.5 618.5,-724.5 618.5,-724.5 618.5,-653.5 618.5,-653.5 618.5,-647.5 624.5,-641.5 630.5,-641.5"/>
<text text-anchor="middle" x="655" y="-721.3" font-family="Times,serif" font-size="14.00">php: PHP</text>
<polyline fill="none" stroke="black" points="618.5,-713.5 691.5,-713.5 "/>
</g>
<!-- php_requirement_host -->
<g id="node15" class="node"><title>php_requirement_host</title>
<polygon fill="turquoise" stroke="black" points="811.5,-686 769.5,-686 769.5,-662 811.5,-662 823.5,-674 811.5,-686"/>
<text text-anchor="middle" x="796.5" y="-670.3" font-family="Times,serif" font-size="14.00">host</text>
</g>
<!-- php&#45;&#45;php_requirement_host -->
<g id="edge11" class="edge"><title>php&#45;&#45;php_requirement_host</title>
<path fill="none" stroke="black" d="M691.563,-685.176C715.78,-682.572 747.301,-679.183 769.253,-676.822"/>
</g>
<!-- php_capability_attachWebsite&#45;&#45;php -->
<g id="edge10" class="edge"><title>php_capability_attachWebsite&#45;&#45;php</title>
<path fill="none" stroke="black" d="M530.817,-678.099C558.458,-680.545 593.02,-683.604 618.493,-685.858"/>
</g>
<!-- appserver_capability_host -->
<g id="node23" class="node"><title>appserver_capability_host</title>
<polygon fill="orange" stroke="black" points="909.5,-622 867.5,-622 867.5,-598 909.5,-598 921.5,-610 909.5,-622"/>
<text text-anchor="middle" x="894.5" y="-606.3" font-family="Times,serif" font-size="14.00">host</text>
</g>
<!-- php_requirement_host&#45;&#45;appserver_capability_host -->
<g id="edge35" class="edge"><title>php_requirement_host&#45;&#45;appserver_capability_host</title>
<path fill="none" stroke="black" stroke-dasharray="1,5" d="M823.732,-656.512C837.278,-647.481 853.758,-636.495 867.299,-627.467"/>
</g>
<!-- apache -->
<g id="node16" class="node"><title>apache</title>
<path fill="none" stroke="black" d="M614.5,-509.5C614.5,-509.5 695.5,-509.5 695.5,-509.5 701.5,-509.5 707.5,-515.5 707.5,-521.5 707.5,-521.5 707.5,-592.5 707.5,-592.5 707.5,-598.5 701.5,-604.5 695.5,-604.5 695.5,-604.5 614.5,-604.5 614.5,-604.5 608.5,-604.5 602.5,-598.5 602.5,-592.5 602.5,-592.5 602.5,-521.5 602.5,-521.5 602.5,-515.5 608.5,-509.5 614.5,-509.5"/>
<text text-anchor="middle" x="655" y="-589.3" font-family="Times,serif" font-size="14.00">apache: Apache</text>
<polyline fill="none" stroke="black" points="602.5,-581.5 707.5,-581.5 "/>
</g>
<!-- apache_requirement_host -->
<g id="node20" class="node"><title>apache_requirement_host</title>
<polygon fill="turquoise" stroke="black" points="811.5,-590 769.5,-590 769.5,-566 811.5,-566 823.5,-578 811.5,-590"/>
<text text-anchor="middle" x="796.5" y="-574.3" font-family="Times,serif" font-size="14.00">host</text>
</g>
<!-- apache&#45;&#45;apache_requirement_host -->
<g id="edge15" class="edge"><title>apache&#45;&#45;apache_requirement_host</title>
<path fill="none" stroke="black" d="M707.548,-564.76C728.504,-567.915 751.817,-571.424 769.173,-574.037"/>
</g>
<!-- apache_capability_data_endpoint -->
<g id="node17" class="node"><title>apache_capability_data_endpoint</title>
<polygon fill="orange" stroke="black" points="519,-611 436,-611 436,-587 519,-587 531,-599 519,-611"/>
<text text-anchor="middle" x="483.5" y="-595.3" font-family="Times,serif" font-size="14.00">data_endpoint</text>
</g>
<!-- apache_capability_data_endpoint&#45;&#45;apache -->
<g id="edge12" class="edge"><title>apache_capability_data_endpoint&#45;&#45;apache</title>
<path fill="none" stroke="black" d="M531.265,-587.412C553.313,-581.949 579.685,-575.414 602.323,-569.805"/>
</g>
<!-- apache_capability_admin_endpoint -->
<g id="node18" class="node"><title>apache_capability_admin_endpoint</title>
<polygon fill="orange" stroke="black" points="525,-557 430,-557 430,-533 525,-533 537,-545 525,-557"/>
<text text-anchor="middle" x="483.5" y="-541.3" font-family="Times,serif" font-size="14.00">admin_endpoint</text>
</g>
<!-- apache_capability_admin_endpoint&#45;&#45;apache -->
<g id="edge13" class="edge"><title>apache_capability_admin_endpoint&#45;&#45;apache</title>
<path fill="none" stroke="black" d="M537.202,-548.731C557.999,-550.203 581.815,-551.89 602.494,-553.354"/>
</g>
<!-- apache_capability_host&#45;&#45;apache -->
<g id="edge14" class="edge"><title>apache_capability_host&#45;&#45;apache</title>
<path fill="none" stroke="black" d="M510.613,-501.168C534.943,-510.642 571.92,-525.04 602.229,-536.841"/>
</g>
<!-- apache_requirement_host&#45;&#45;appserver_capability_host -->
<g id="edge36" class="edge"><title>apache_requirement_host&#45;&#45;appserver_capability_host</title>
<path fill="none" stroke="black" stroke-dasharray="1,5" d="M823.732,-586.744C837.278,-591.259 853.758,-596.753 867.299,-601.266"/>
</g>
<!-- appserver -->
<g id="node21" class="node"><title>appserver</title>
<path fill="none" stroke="black" d="M975,-427.5C975,-427.5 1082,-427.5 1082,-427.5 1088,-427.5 1094,-433.5 1094,-439.5 1094,-439.5 1094,-510.5 1094,-510.5 1094,-516.5 1088,-522.5 1082,-522.5 1082,-522.5 975,-522.5 975,-522.5 969,-522.5 963,-516.5 963,-510.5 963,-510.5 963,-439.5 963,-439.5 963,-433.5 969,-427.5 975,-427.5"/>
<text text-anchor="middle" x="1028.5" y="-507.3" font-family="Times,serif" font-size="14.00">appserver: Compute</text>
<polyline fill="none" stroke="black" points="963,-499.5 1094,-499.5 "/>
</g>
<!-- appserver_requirement_local_storage -->
<g id="node28" class="node"><title>appserver_requirement_local_storage</title>
<polygon fill="turquoise" stroke="black" points="1208,-487 1130,-487 1130,-463 1208,-463 1220,-475 1208,-487"/>
<text text-anchor="middle" x="1175" y="-471.3" font-family="Times,serif" font-size="14.00">local_storage</text>
</g>
<!-- appserver&#45;&#45;appserver_requirement_local_storage -->
<g id="edge22" class="edge"><title>appserver&#45;&#45;appserver_requirement_local_storage</title>
<path fill="none" stroke="black" d="M1094.14,-475C1106.17,-475 1118.47,-475 1129.71,-475"/>
</g>
<!-- appserver_capability_feature&#45;&#45;appserver -->
<g id="edge16" class="edge"><title>appserver_capability_feature&#45;&#45;appserver</title>
<path fill="none" stroke="black" d="M922.212,-539.608C934.04,-532.351 948.513,-523.469 962.899,-514.642"/>
</g>
<!-- appserver_capability_host&#45;&#45;appserver -->
<g id="edge17" class="edge"><title>appserver_capability_host&#45;&#45;appserver</title>
<path fill="none" stroke="black" d="M917.474,-591.722C920.721,-588.861 923.986,-585.893 927,-583 946.862,-563.932 967.765,-541.834 985.332,-522.614"/>
</g>
<!-- appserver_capability_endpoint -->
<g id="node24" class="node"><title>appserver_capability_endpoint</title>
<polygon fill="orange" stroke="black" points="915,-514 862,-514 862,-490 915,-490 927,-502 915,-514"/>
<text text-anchor="middle" x="894.5" y="-498.3" font-family="Times,serif" font-size="14.00">endpoint</text>
</g>
<!-- appserver_capability_endpoint&#45;&#45;appserver -->
<g id="edge18" class="edge"><title>appserver_capability_endpoint&#45;&#45;appserver</title>
<path fill="none" stroke="black" d="M927.117,-495.533C937.948,-493.317 950.492,-490.752 962.967,-488.2"/>
</g>
<!-- appserver_capability_os -->
<g id="node25" class="node"><title>appserver_capability_os</title>
<polygon fill="orange" stroke="black" points="909.5,-460 867.5,-460 867.5,-436 909.5,-436 921.5,-448 909.5,-460"/>
<text text-anchor="middle" x="894.5" y="-444.3" font-family="Times,serif" font-size="14.00">os</text>
</g>
<!-- appserver_capability_os&#45;&#45;appserver -->
<g id="edge19" class="edge"><title>appserver_capability_os&#45;&#45;appserver</title>
<path fill="none" stroke="black" d="M921.579,-453.334C933.525,-455.778 948.267,-458.793 962.915,-461.79"/>
</g>
<!-- appserver_capability_scalable -->
<g id="node26" class="node"><title>appserver_capability_scalable</title>
<polygon fill="orange" stroke="black" points="913,-406 864,-406 864,-382 913,-382 925,-394 913,-406"/>
<text text-anchor="middle" x="894.5" y="-390.3" font-family="Times,serif" font-size="14.00">scalable</text>
</g>
<!-- appserver_capability_scalable&#45;&#45;appserver -->
<g id="edge20" class="edge"><title>appserver_capability_scalable&#45;&#45;appserver</title>
<path fill="none" stroke="black" d="M925.123,-412.178C936.373,-419.081 949.673,-427.243 962.899,-435.358"/>
</g>
<!-- appserver_capability_binding -->
<g id="node27" class="node"><title>appserver_capability_binding</title>
<polygon fill="orange" stroke="black" points="912,-352 865,-352 865,-328 912,-328 924,-340 912,-352"/>
<text text-anchor="middle" x="894.5" y="-336.3" font-family="Times,serif" font-size="14.00">binding</text>
</g>
<!-- appserver_capability_binding&#45;&#45;appserver -->
<g id="edge21" class="edge"><title>appserver_capability_binding&#45;&#45;appserver</title>
<path fill="none" stroke="black" d="M917.474,-358.278C920.721,-361.139 923.986,-364.107 927,-367 946.862,-386.068 967.765,-408.166 985.332,-427.386"/>
</g>
<!-- dbserver -->
<g id="node29" class="node"><title>dbserver</title>
<path fill="none" stroke="black" d="M1369,-94.5C1369,-94.5 1470,-94.5 1470,-94.5 1476,-94.5 1482,-100.5 1482,-106.5 1482,-106.5 1482,-177.5 1482,-177.5 1482,-183.5 1476,-189.5 1470,-189.5 1470,-189.5 1369,-189.5 1369,-189.5 1363,-189.5 1357,-183.5 1357,-177.5 1357,-177.5 1357,-106.5 1357,-106.5 1357,-100.5 1363,-94.5 1369,-94.5"/>
<text text-anchor="middle" x="1419.5" y="-174.3" font-family="Times,serif" font-size="14.00">dbserver: Compute</text>
<polyline fill="none" stroke="black" points="1357,-166.5 1482,-166.5 "/>
</g>
<!-- dbserver_requirement_local_storage -->
<g id="node35" class="node"><title>dbserver_requirement_local_storage</title>
<polygon fill="turquoise" stroke="black" points="1596,-154 1518,-154 1518,-130 1596,-130 1608,-142 1596,-154"/>
<text text-anchor="middle" x="1563" y="-138.3" font-family="Times,serif" font-size="14.00">local_storage</text>
</g>
<!-- dbserver&#45;&#45;dbserver_requirement_local_storage -->
<g id="edge28" class="edge"><title>dbserver&#45;&#45;dbserver_requirement_local_storage</title>
<path fill="none" stroke="black" d="M1482.15,-142C1494.22,-142 1506.64,-142 1517.99,-142"/>
</g>
<!-- dbserver_capability_host&#45;&#45;dbserver -->
<g id="edge23" class="edge"><title>dbserver_capability_host&#45;&#45;dbserver</title>
<path fill="none" stroke="black" d="M1311.09,-231.923C1324.93,-220.334 1343.6,-204.704 1361.49,-189.727"/>
</g>
<!-- dbserver_capability_endpoint -->
<g id="node31" class="node"><title>dbserver_capability_endpoint</title>
<polygon fill="orange" stroke="black" points="1309,-208 1256,-208 1256,-184 1309,-184 1321,-196 1309,-208"/>
<text text-anchor="middle" x="1288.5" y="-192.3" font-family="Times,serif" font-size="14.00">endpoint</text>
</g>
<!-- dbserver_capability_endpoint&#45;&#45;dbserver -->
<g id="edge24" class="edge"><title>dbserver_capability_endpoint&#45;&#45;dbserver</title>
<path fill="none" stroke="black" d="M1321.06,-182.79C1331.87,-178.263 1344.38,-173.028 1356.75,-167.85"/>
</g>
<!-- dbserver_capability_os -->
<g id="node32" class="node"><title>dbserver_capability_os</title>
<polygon fill="orange" stroke="black" points="1303.5,-154 1261.5,-154 1261.5,-130 1303.5,-130 1315.5,-142 1303.5,-154"/>
<text text-anchor="middle" x="1288.5" y="-138.3" font-family="Times,serif" font-size="14.00">os</text>
</g>
<!-- dbserver_capability_os&#45;&#45;dbserver -->
<g id="edge25" class="edge"><title>dbserver_capability_os&#45;&#45;dbserver</title>
<path fill="none" stroke="black" d="M1315.61,-142C1327.61,-142 1342.39,-142 1356.98,-142"/>
</g>
<!-- dbserver_capability_scalable -->
<g id="node33" class="node"><title>dbserver_capability_scalable</title>
<polygon fill="orange" stroke="black" points="1307,-100 1258,-100 1258,-76 1307,-76 1319,-88 1307,-100"/>
<text text-anchor="middle" x="1288.5" y="-84.3" font-family="Times,serif" font-size="14.00">scalable</text>
</g>
<!-- dbserver_capability_scalable&#45;&#45;dbserver -->
<g id="edge26" class="edge"><title>dbserver_capability_scalable&#45;&#45;dbserver</title>
<path fill="none" stroke="black" d="M1319.1,-100.389C1330.4,-105.122 1343.76,-110.712 1356.95,-116.233"/>
</g>
<!-- dbserver_capability_binding -->
<g id="node34" class="node"><title>dbserver_capability_binding</title>
<polygon fill="orange" stroke="black" points="1306,-46 1259,-46 1259,-22 1306,-22 1318,-34 1306,-46"/>
<text text-anchor="middle" x="1288.5" y="-30.3" font-family="Times,serif" font-size="14.00">binding</text>
</g>
<!-- dbserver_capability_binding&#45;&#45;dbserver -->
<g id="edge27" class="edge"><title>dbserver_capability_binding&#45;&#45;dbserver</title>
<path fill="none" stroke="black" d="M1311.09,-52.0768C1324.93,-63.6662 1343.6,-79.2958 1361.49,-94.2729"/>
</g>
</g>
</svg>
