<?xml version="1.0" encoding="UTF-8" standalone="no"?>
<!DOCTYPE svg PUBLIC "-//W3C//DTD SVG 1.1//EN"
 "http://www.w3.org/Graphics/SVG/1.1/DTD/svg11.dtd">
<!-- Generated by graphviz version 2.38.0 (20140413.2041)
 -->
<!-- Title: ToscaDiagram Pages: 1 -->
<svg width="1954pt" height="402pt"
 viewBox="0.00 0.00 1954.00 402.00" xmlns="http://www.w3.org/2000/svg" xmlns:xlink="http://www.w3.org/1999/xlink">
<g id="graph0" class="graph" transform="scale(1 1) rotate(0) translate(4 398)">
<title>ToscaDiagram</title>
<polygon fill="white" stroke="none" points="-4,4 -4,-398 1950,-398 1950,4 -4,4"/>
<g id="clust1" class="cluster"><title>clustermysql_container</title>
<polygon fill="none" stroke="white" points="584,-178 584,-290 1055,-290 1055,-178 584,-178"/>
</g>
<g id="clust2" class="cluster"><title>clustermysql_volume</title>
<polygon fill="none" stroke="white" points="1075,-154 1075,-266 1410,-266 1410,-154 1075,-154"/>
</g>
<g id="clust3" class="cluster"><title>clustermysql_deployment_unit</title>
<polygon fill="none" stroke="white" points="1083,-274 1083,-386 1524,-386 1524,-274 1083,-274"/>
</g>
<g id="clust4" class="cluster"><title>clusterwordpress_container</title>
<polygon fill="none" stroke="white" points="8,-66 8,-226 564,-226 564,-66 8,-66"/>
</g>
<g id="clust5" class="cluster"><title>clusterwordpress_volume</title>
<polygon fill="none" stroke="white" points="605,-14 605,-126 961,-126 961,-14 605,-14"/>
</g>
<g id="clust6" class="cluster"><title>clusterwordpress_deployment_unit</title>
<polygon fill="none" stroke="white" points="1083,-34 1083,-146 1524,-146 1524,-34 1083,-34"/>
</g>
<g id="clust7" class="cluster"><title>clusterinfrastructure</title>
<polygon fill="none" stroke="white" points="1544,-8 1544,-276 1938,-276 1938,-8 1544,-8"/>
</g>
<!-- mysql_container -->
<g id="node1" class="node"><title>mysql_container</title>
<path fill="none" stroke="black" d="M780.5,-186.5C780.5,-186.5 919.5,-186.5 919.5,-186.5 925.5,-186.5 931.5,-192.5 931.5,-198.5 931.5,-198.5 931.5,-269.5 931.5,-269.5 931.5,-275.5 925.5,-281.5 919.5,-281.5 919.5,-281.5 780.5,-281.5 780.5,-281.5 774.5,-281.5 768.5,-275.5 768.5,-269.5 768.5,-269.5 768.5,-198.5 768.5,-198.5 768.5,-192.5 774.5,-186.5 780.5,-186.5"/>
<text text-anchor="middle" x="850" y="-266.3" font-family="Times,serif" font-size="14.00">mysql_container: MySQL</text>
<polyline fill="none" stroke="black" points="768.5,-258.5 931.5,-258.5 "/>
</g>
<!-- mysql_container_requirement_host -->
<g id="node3" class="node"><title>mysql_container_requirement_host</title>
<polygon fill="turquoise" stroke="black" points="1033,-276 991,-276 991,-252 1033,-252 1045,-264 1033,-276"/>
<text text-anchor="middle" x="1018" y="-260.3" font-family="Times,serif" font-size="14.00">host</text>
</g>
<!-- mysql_container&#45;&#45;mysql_container_requirement_host -->
<g id="edge2" class="edge"><title>mysql_container&#45;&#45;mysql_container_requirement_host</title>
<path fill="none" stroke="black" d="M931.569,-248.561C953.046,-252.442 974.741,-256.363 990.894,-259.282"/>
</g>
<!-- mysql_container_requirement_volume -->
<g id="node4" class="node"><title>mysql_container_requirement_volume</title>
<polygon fill="turquoise" stroke="black" points="1035,-222 989,-222 989,-198 1035,-198 1047,-210 1035,-222"/>
<text text-anchor="middle" x="1018" y="-206.3" font-family="Times,serif" font-size="14.00">volume</text>
</g>
<!-- mysql_container&#45;&#45;mysql_container_requirement_volume -->
<g id="edge3" class="edge"><title>mysql_container&#45;&#45;mysql_container_requirement_volume</title>
<path fill="none" stroke="black" d="M931.569,-222.352C952.055,-219.39 972.739,-216.399 988.623,-214.103"/>
</g>
<!-- mysql_container_capability_database_endpoint -->
<g id="node2" class="node"><title>mysql_container_capability_database_endpoint</title>
<polygon fill="orange" stroke="black" points="699,-227 592,-227 592,-203 699,-203 711,-215 699,-227"/>
<text text-anchor="middle" x="651.5" y="-211.3" font-family="Times,serif" font-size="14.00">database_endpoint</text>
</g>
<!-- mysql_container_capability_database_endpoint&#45;&#45;mysql_container -->
<g id="edge1" class="edge"><title>mysql_container_capability_database_endpoint&#45;&#45;mysql_container</title>
<path fill="none" stroke="black" d="M711.19,-220.675C729.172,-222.414 749.275,-224.357 768.449,-226.211"/>
</g>
<!-- mysql_deployment_unit_capability_host -->
<g id="node8" class="node"><title>mysql_deployment_unit_capability_host</title>
<polygon fill="orange" stroke="black" points="1136.5,-366 1094.5,-366 1094.5,-342 1136.5,-342 1148.5,-354 1136.5,-366"/>
<text text-anchor="middle" x="1121.5" y="-350.3" font-family="Times,serif" font-size="14.00">host</text>
</g>
<!-- mysql_container_requirement_host&#45;&#45;mysql_deployment_unit_capability_host -->
<g id="edge22" class="edge"><title>mysql_container_requirement_host&#45;&#45;mysql_deployment_unit_capability_host</title>
<path fill="none" stroke="black" stroke-dasharray="1,5" d="M1032.67,-282.204C1043.28,-295.585 1058.86,-313.682 1075,-327 1080.81,-331.794 1087.57,-336.286 1094.07,-340.179"/>
</g>
<!-- mysql_volume_capability_attachment -->
<g id="node6" class="node"><title>mysql_volume_capability_attachment</title>
<polygon fill="orange" stroke="black" points="1148,-222 1083,-222 1083,-198 1148,-198 1160,-210 1148,-222"/>
<text text-anchor="middle" x="1121.5" y="-206.3" font-family="Times,serif" font-size="14.00">attachment</text>
</g>
<!-- mysql_container_requirement_volume&#45;&#45;mysql_volume_capability_attachment -->
<g id="edge23" class="edge"><title>mysql_container_requirement_volume&#45;&#45;mysql_volume_capability_attachment</title>
<path fill="none" stroke="black" stroke-dasharray="1,5" d="M1047,-210C1058.04,-210 1070.88,-210 1082.71,-210"/>
</g>
<!-- mysql_volume -->
<g id="node5" class="node"><title>mysql_volume</title>
<path fill="none" stroke="black" d="M1232,-162.5C1232,-162.5 1390,-162.5 1390,-162.5 1396,-162.5 1402,-168.5 1402,-174.5 1402,-174.5 1402,-245.5 1402,-245.5 1402,-251.5 1396,-257.5 1390,-257.5 1390,-257.5 1232,-257.5 1232,-257.5 1226,-257.5 1220,-251.5 1220,-245.5 1220,-245.5 1220,-174.5 1220,-174.5 1220,-168.5 1226,-162.5 1232,-162.5"/>
<text text-anchor="middle" x="1311" y="-242.3" font-family="Times,serif" font-size="14.00">mysql_volume: BlockStorage</text>
<polyline fill="none" stroke="black" points="1220,-234.5 1402,-234.5 "/>
</g>
<!-- mysql_volume_capability_attachment&#45;&#45;mysql_volume -->
<g id="edge4" class="edge"><title>mysql_volume_capability_attachment&#45;&#45;mysql_volume</title>
<path fill="none" stroke="black" d="M1160.44,-210C1177.67,-210 1198.85,-210 1219.8,-210"/>
</g>
<!-- mysql_deployment_unit -->
<g id="node7" class="node"><title>mysql_deployment_unit</title>
<path fill="none" stroke="black" d="M1220,-282.5C1220,-282.5 1402,-282.5 1402,-282.5 1408,-282.5 1414,-288.5 1414,-294.5 1414,-294.5 1414,-365.5 1414,-365.5 1414,-371.5 1408,-377.5 1402,-377.5 1402,-377.5 1220,-377.5 1220,-377.5 1214,-377.5 1208,-371.5 1208,-365.5 1208,-365.5 1208,-294.5 1208,-294.5 1208,-288.5 1214,-282.5 1220,-282.5"/>
<text text-anchor="middle" x="1311" y="-362.3" font-family="Times,serif" font-size="14.00">mysql_deployment_unit: Runtime</text>
<polyline fill="none" stroke="black" points="1208,-354.5 1414,-354.5 "/>
</g>
<!-- mysql_deployment_unit_requirement_host -->
<g id="node10" class="node"><title>mysql_deployment_unit_requirement_host</title>
<polygon fill="turquoise" stroke="black" points="1504,-327 1462,-327 1462,-303 1504,-303 1516,-315 1504,-327"/>
<text text-anchor="middle" x="1489" y="-311.3" font-family="Times,serif" font-size="14.00">host</text>
</g>
<!-- mysql_deployment_unit&#45;&#45;mysql_deployment_unit_requirement_host -->
<g id="edge7" class="edge"><title>mysql_deployment_unit&#45;&#45;mysql_deployment_unit_requirement_host</title>
<path fill="none" stroke="black" d="M1414.13,-321.296C1431.72,-319.797 1448.53,-318.364 1461.67,-317.244"/>
</g>
<!-- mysql_deployment_unit_capability_host&#45;&#45;mysql_deployment_unit -->
<g id="edge5" class="edge"><title>mysql_deployment_unit_capability_host&#45;&#45;mysql_deployment_unit</title>
<path fill="none" stroke="black" d="M1148.57,-350.663C1164.37,-348.641 1185.66,-345.916 1207.58,-343.109"/>
</g>
<!-- mysql_deployment_unit_capability_scalable -->
<g id="node9" class="node"><title>mysql_deployment_unit_capability_scalable</title>
<polygon fill="orange" stroke="black" points="1140,-312 1091,-312 1091,-288 1140,-288 1152,-300 1140,-312"/>
<text text-anchor="middle" x="1121.5" y="-296.3" font-family="Times,serif" font-size="14.00">scalable</text>
</g>
<!-- mysql_deployment_unit_capability_scalable&#45;&#45;mysql_deployment_unit -->
<g id="edge6" class="edge"><title>mysql_deployment_unit_capability_scalable&#45;&#45;mysql_deployment_unit</title>
<path fill="none" stroke="black" d="M1152.21,-304.754C1167.6,-307.215 1187.39,-310.382 1207.72,-313.636"/>
</g>
<!-- infrastructure_capability_host -->
<g id="node23" class="node"><title>infrastructure_capability_host</title>
<polygon fill="orange" stroke="black" points="1599.5,-262 1557.5,-262 1557.5,-238 1599.5,-238 1611.5,-250 1599.5,-262"/>
<text text-anchor="middle" x="1584.5" y="-246.3" font-family="Times,serif" font-size="14.00">host</text>
</g>
<!-- mysql_deployment_unit_requirement_host&#45;&#45;infrastructure_capability_host -->
<g id="edge24" class="edge"><title>mysql_deployment_unit_requirement_host&#45;&#45;infrastructure_capability_host</title>
<path fill="none" stroke="black" stroke-dasharray="1,5" d="M1516.04,-296.894C1529.01,-287.878 1544.65,-277.011 1557.59,-268.009"/>
</g>
<!-- wordpress_container -->
<g id="node11" class="node"><title>wordpress_container</title>
<path fill="none" stroke="black" d="M157,-98.5C157,-98.5 334,-98.5 334,-98.5 340,-98.5 346,-104.5 346,-110.5 346,-110.5 346,-181.5 346,-181.5 346,-187.5 340,-193.5 334,-193.5 334,-193.5 157,-193.5 157,-193.5 151,-193.5 145,-187.5 145,-181.5 145,-181.5 145,-110.5 145,-110.5 145,-104.5 151,-98.5 157,-98.5"/>
<text text-anchor="middle" x="245.5" y="-178.3" font-family="Times,serif" font-size="14.00">wordpress_container: Wordpress</text>
<polyline fill="none" stroke="black" points="145,-170.5 346,-170.5 "/>
</g>
<!-- wordpress_container_requirement_host -->
<g id="node13" class="node"><title>wordpress_container_requirement_host</title>
<polygon fill="turquoise" stroke="black" points="484,-158 442,-158 442,-134 484,-134 496,-146 484,-158"/>
<text text-anchor="middle" x="469" y="-142.3" font-family="Times,serif" font-size="14.00">host</text>
</g>
<!-- wordpress_container&#45;&#45;wordpress_container_requirement_host -->
<g id="edge9" class="edge"><title>wordpress_container&#45;&#45;wordpress_container_requirement_host</title>
<path fill="none" stroke="black" d="M346.234,-146C381.372,-146 418.003,-146 441.791,-146"/>
</g>
<!-- wordpress_container_requirement_WORDPRESS_DB_HOST -->
<g id="node14" class="node"><title>wordpress_container_requirement_WORDPRESS_DB_HOST</title>
<polygon fill="turquoise" stroke="black" points="544,-212 382,-212 382,-188 544,-188 556,-200 544,-212"/>
<text text-anchor="middle" x="469" y="-196.3" font-family="Times,serif" font-size="14.00">WORDPRESS_DB_HOST</text>
</g>
<!-- wordpress_container&#45;&#45;wordpress_container_requirement_WORDPRESS_DB_HOST -->
<g id="edge10" class="edge"><title>wordpress_container&#45;&#45;wordpress_container_requirement_WORDPRESS_DB_HOST</title>
<path fill="none" stroke="black" d="M346.234,-170.315C362.31,-174.234 378.699,-178.229 394.027,-181.966"/>
</g>
<!-- wordpress_container_requirement_volume -->
<g id="node15" class="node"><title>wordpress_container_requirement_volume</title>
<polygon fill="turquoise" stroke="black" points="486,-104 440,-104 440,-80 486,-80 498,-92 486,-104"/>
<text text-anchor="middle" x="469" y="-88.3" font-family="Times,serif" font-size="14.00">volume</text>
</g>
<!-- wordpress_container&#45;&#45;wordpress_container_requirement_volume -->
<g id="edge11" class="edge"><title>wordpress_container&#45;&#45;wordpress_container_requirement_volume</title>
<path fill="none" stroke="black" d="M346.234,-121.685C380.453,-113.343 416.088,-104.656 439.899,-98.8507"/>
</g>
<!-- wordpress_container_capability_app_endpoint -->
<g id="node12" class="node"><title>wordpress_container_capability_app_endpoint</title>
<polygon fill="orange" stroke="black" points="97,-158 16,-158 16,-134 97,-134 109,-146 97,-158"/>
<text text-anchor="middle" x="62.5" y="-142.3" font-family="Times,serif" font-size="14.00">app_endpoint</text>
</g>
<!-- wordpress_container_capability_app_endpoint&#45;&#45;wordpress_container -->
<g id="edge8" class="edge"><title>wordpress_container_capability_app_endpoint&#45;&#45;wordpress_container</title>
<path fill="none" stroke="black" d="M109.174,-146C120.17,-146 132.348,-146 144.759,-146"/>
</g>
<!-- wordpress_deployment_unit_capability_host -->
<g id="node19" class="node"><title>wordpress_deployment_unit_capability_host</title>
<polygon fill="orange" stroke="black" points="1136.5,-132 1094.5,-132 1094.5,-108 1136.5,-108 1148.5,-120 1136.5,-132"/>
<text text-anchor="middle" x="1121.5" y="-116.3" font-family="Times,serif" font-size="14.00">host</text>
</g>
<!-- wordpress_container_requirement_host&#45;&#45;wordpress_deployment_unit_capability_host -->
<g id="edge25" class="edge"><title>wordpress_container_requirement_host&#45;&#45;wordpress_deployment_unit_capability_host</title>
<path fill="none" stroke="black" stroke-dasharray="1,5" d="M496.093,-145.426C569.388,-143.753 783.375,-138.46 961,-130 1007.98,-127.763 1062.67,-124.104 1094.27,-121.887"/>
</g>
<!-- wordpress_container_requirement_WORDPRESS_DB_HOST&#45;&#45;mysql_container_capability_database_endpoint -->
<g id="edge26" class="edge"><title>wordpress_container_requirement_WORDPRESS_DB_HOST&#45;&#45;mysql_container_capability_database_endpoint</title>
<path fill="none" stroke="black" stroke-dasharray="1,5" d="M556.021,-207.149C568.188,-208.16 580.458,-209.179 591.944,-210.134"/>
</g>
<!-- wordpress_volume_capability_attachment -->
<g id="node17" class="node"><title>wordpress_volume_capability_attachment</title>
<polygon fill="orange" stroke="black" points="678,-93 613,-93 613,-69 678,-69 690,-81 678,-93"/>
<text text-anchor="middle" x="651.5" y="-77.3" font-family="Times,serif" font-size="14.00">attachment</text>
</g>
<!-- wordpress_container_requirement_volume&#45;&#45;wordpress_volume_capability_attachment -->
<g id="edge27" class="edge"><title>wordpress_container_requirement_volume&#45;&#45;wordpress_volume_capability_attachment</title>
<path fill="none" stroke="black" stroke-dasharray="1,5" d="M498.203,-90.2812C529.039,-88.402 578.606,-85.3814 612.771,-83.2993"/>
</g>
<!-- wordpress_volume -->
<g id="node16" class="node"><title>wordpress_volume</title>
<path fill="none" stroke="black" d="M759,-22.5C759,-22.5 941,-22.5 941,-22.5 947,-22.5 953,-28.5 953,-34.5 953,-34.5 953,-105.5 953,-105.5 953,-111.5 947,-117.5 941,-117.5 941,-117.5 759,-117.5 759,-117.5 753,-117.5 747,-111.5 747,-105.5 747,-105.5 747,-34.5 747,-34.5 747,-28.5 753,-22.5 759,-22.5"/>
<text text-anchor="middle" x="850" y="-102.3" font-family="Times,serif" font-size="14.00">wordpress_volume: BlockStorage</text>
<polyline fill="none" stroke="black" points="747,-94.5 953,-94.5 "/>
</g>
<!-- wordpress_volume_capability_attachment&#45;&#45;wordpress_volume -->
<g id="edge12" class="edge"><title>wordpress_volume_capability_attachment&#45;&#45;wordpress_volume</title>
<path fill="none" stroke="black" d="M690.387,-78.8791C706.67,-77.9676 726.564,-76.8539 746.685,-75.7275"/>
</g>
<!-- wordpress_deployment_unit -->
<g id="node18" class="node"><title>wordpress_deployment_unit</title>
<path fill="none" stroke="black" d="M1208,-42.5C1208,-42.5 1414,-42.5 1414,-42.5 1420,-42.5 1426,-48.5 1426,-54.5 1426,-54.5 1426,-125.5 1426,-125.5 1426,-131.5 1420,-137.5 1414,-137.5 1414,-137.5 1208,-137.5 1208,-137.5 1202,-137.5 1196,-131.5 1196,-125.5 1196,-125.5 1196,-54.5 1196,-54.5 1196,-48.5 1202,-42.5 1208,-42.5"/>
<text text-anchor="middle" x="1311" y="-122.3" font-family="Times,serif" font-size="14.00">wordpress_deployment_unit: Runtime</text>
<polyline fill="none" stroke="black" points="1196,-114.5 1426,-114.5 "/>
</g>
<!-- wordpress_deployment_unit_requirement_host -->
<g id="node21" class="node"><title>wordpress_deployment_unit_requirement_host</title>
<polygon fill="turquoise" stroke="black" points="1504,-117 1462,-117 1462,-93 1504,-93 1516,-105 1504,-117"/>
<text text-anchor="middle" x="1489" y="-101.3" font-family="Times,serif" font-size="14.00">host</text>
</g>
<!-- wordpress_deployment_unit&#45;&#45;wordpress_deployment_unit_requirement_host -->
<g id="edge15" class="edge"><title>wordpress_deployment_unit&#45;&#45;wordpress_deployment_unit_requirement_host</title>
<path fill="none" stroke="black" d="M1426.44,-99.7537C1439.57,-100.873 1451.84,-101.918 1461.91,-102.777"/>
</g>
<!-- wordpress_deployment_unit_capability_host&#45;&#45;wordpress_deployment_unit -->
<g id="edge13" class="edge"><title>wordpress_deployment_unit_capability_host&#45;&#45;wordpress_deployment_unit</title>
<path fill="none" stroke="black" d="M1148.57,-115.829C1161.55,-113.752 1178.24,-111.082 1195.94,-108.249"/>
</g>
<!-- wordpress_deployment_unit_capability_scalable -->
<g id="node20" class="node"><title>wordpress_deployment_unit_capability_scalable</title>
<polygon fill="orange" stroke="black" points="1140,-78 1091,-78 1091,-54 1140,-54 1152,-66 1140,-78"/>
<text text-anchor="middle" x="1121.5" y="-62.3" font-family="Times,serif" font-size="14.00">scalable</text>
</g>
<!-- wordpress_deployment_unit_capability_scalable&#45;&#45;wordpress_deployment_unit -->
<g id="edge14" class="edge"><title>wordpress_deployment_unit_capability_scalable&#45;&#45;wordpress_deployment_unit</title>
<path fill="none" stroke="black" d="M1152.21,-69.8029C1164.6,-71.389 1179.85,-73.341 1195.94,-75.4004"/>
</g>
<!-- wordpress_deployment_unit_requirement_host&#45;&#45;infrastructure_capability_host -->
<g id="edge28" class="edge"><title>wordpress_deployment_unit_requirement_host&#45;&#45;infrastructure_capability_host</title>
<path fill="none" stroke="black" stroke-dasharray="1,5" d="M1494.91,-123.064C1502.33,-147.77 1518.3,-192.505 1544,-223 1547.75,-227.447 1552.4,-231.48 1557.18,-234.994"/>
</g>
<!-- infrastructure -->
<g id="node22" class="node"><title>infrastructure</title>
<path fill="none" stroke="black" d="M1665,-94.5C1665,-94.5 1792,-94.5 1792,-94.5 1798,-94.5 1804,-100.5 1804,-106.5 1804,-106.5 1804,-177.5 1804,-177.5 1804,-183.5 1798,-189.5 1792,-189.5 1792,-189.5 1665,-189.5 1665,-189.5 1659,-189.5 1653,-183.5 1653,-177.5 1653,-177.5 1653,-106.5 1653,-106.5 1653,-100.5 1659,-94.5 1665,-94.5"/>
<text text-anchor="middle" x="1728.5" y="-174.3" font-family="Times,serif" font-size="14.00">infrastructure: Compute</text>
<polyline fill="none" stroke="black" points="1653,-166.5 1804,-166.5 "/>
</g>
<!-- infrastructure_requirement_local_storage -->
<g id="node28" class="node"><title>infrastructure_requirement_local_storage</title>
<polygon fill="turquoise" stroke="black" points="1918,-154 1840,-154 1840,-130 1918,-130 1930,-142 1918,-154"/>
<text text-anchor="middle" x="1885" y="-138.3" font-family="Times,serif" font-size="14.00">local_storage</text>
</g>
<!-- infrastructure&#45;&#45;infrastructure_requirement_local_storage -->
<g id="edge21" class="edge"><title>infrastructure&#45;&#45;infrastructure_requirement_local_storage</title>
<path fill="none" stroke="black" d="M1804.03,-142C1816.23,-142 1828.51,-142 1839.67,-142"/>
</g>
<!-- infrastructure_capability_host&#45;&#45;infrastructure -->
<g id="edge16" class="edge"><title>infrastructure_capability_host&#45;&#45;infrastructure</title>
<path fill="none" stroke="black" d="M1609.27,-231.923C1624.51,-220.334 1645.06,-204.704 1664.75,-189.727"/>
</g>
<!-- infrastructure_capability_endpoint -->
<g id="node24" class="node"><title>infrastructure_capability_endpoint</title>
<polygon fill="orange" stroke="black" points="1605,-208 1552,-208 1552,-184 1605,-184 1617,-196 1605,-208"/>
<text text-anchor="middle" x="1584.5" y="-192.3" font-family="Times,serif" font-size="14.00">endpoint</text>
</g>
<!-- infrastructure_capability_endpoint&#45;&#45;infrastructure -->
<g id="edge17" class="edge"><title>infrastructure_capability_endpoint&#45;&#45;infrastructure</title>
<path fill="none" stroke="black" d="M1617.01,-184.016C1627.72,-179.945 1640.18,-175.207 1652.79,-170.41"/>
</g>
<!-- infrastructure_capability_os -->
<g id="node25" class="node"><title>infrastructure_capability_os</title>
<polygon fill="orange" stroke="black" points="1599.5,-154 1557.5,-154 1557.5,-130 1599.5,-130 1611.5,-142 1599.5,-154"/>
<text text-anchor="middle" x="1584.5" y="-138.3" font-family="Times,serif" font-size="14.00">os</text>
</g>
<!-- infrastructure_capability_os&#45;&#45;infrastructure -->
<g id="edge18" class="edge"><title>infrastructure_capability_os&#45;&#45;infrastructure</title>
<path fill="none" stroke="black" d="M1611.54,-142C1623.39,-142 1638.08,-142 1652.98,-142"/>
</g>
<!-- infrastructure_capability_scalable -->
<g id="node26" class="node"><title>infrastructure_capability_scalable</title>
<polygon fill="orange" stroke="black" points="1603,-100 1554,-100 1554,-76 1603,-76 1615,-88 1603,-100"/>
<text text-anchor="middle" x="1584.5" y="-84.3" font-family="Times,serif" font-size="14.00">scalable</text>
</g>
<!-- infrastructure_capability_scalable&#45;&#45;infrastructure -->
<g id="edge19" class="edge"><title>infrastructure_capability_scalable&#45;&#45;infrastructure</title>
<path fill="none" stroke="black" d="M1615.27,-99.3202C1626.33,-103.526 1639.43,-108.509 1652.71,-113.559"/>
</g>
<!-- infrastructure_capability_binding -->
<g id="node27" class="node"><title>infrastructure_capability_binding</title>
<polygon fill="orange" stroke="black" points="1602,-46 1555,-46 1555,-22 1602,-22 1614,-34 1602,-46"/>
<text text-anchor="middle" x="1584.5" y="-30.3" font-family="Times,serif" font-size="14.00">binding</text>
</g>
<!-- infrastructure_capability_binding&#45;&#45;infrastructure -->
<g id="edge20" class="edge"><title>infrastructure_capability_binding&#45;&#45;infrastructure</title>
<path fill="none" stroke="black" d="M1609.27,-52.0768C1624.51,-63.6662 1645.06,-79.2958 1664.75,-94.2729"/>
</g>
</g>
</svg>
