<?xml version="1.0" encoding="UTF-8" standalone="no"?><svg xmlns="http://www.w3.org/2000/svg" xmlns:xlink="http://www.w3.org/1999/xlink" contentScriptType="application/ecmascript" contentStyleType="text/css" height="405px" preserveAspectRatio="none" style="width:3153px;height:405px;background:#FFFFFF;" version="1.1" viewBox="0 0 3153 405" width="3153px" zoomAndPan="magnify"><defs><filter height="300%" id="fn981jyd7wram" width="300%" x="-1" y="-1"><feGaussianBlur result="blurOut" stdDeviation="2.0"/><feColorMatrix in="blurOut" result="blurOut2" type="matrix" values="0 0 0 0 0 0 0 0 0 0 0 0 0 0 0 0 0 0 .4 0"/><feOffset dx="4.0" dy="4.0" in="blurOut2" result="blurOut3"/><feBlend in="SourceGraphic" in2="blurOut3" mode="normal"/></filter></defs><g><!--MD5=[9a8f4fba085d2142c4d4bd042069a00c]
class tosca.nodes.Container.Database--><rect codeLine="45" fill="#DDDDDD" filter="url(#fn981jyd7wram)" height="48" id="tosca.nodes.Container.Database" style="stroke:#A80036;stroke-width:1.5;" width="240" x="204.5" y="7"/><ellipse cx="219.5" cy="23" fill="#008000" rx="11" ry="11" style="stroke:#A80036;stroke-width:1.0;"/><path d="M215.4844,16.6094 L218.125,16.6094 L221.5781,25.6094 L221.5781,16.6094 L223.7344,16.6094 L223.7344,29 L221.1094,29 L217.6406,20 L217.6406,29 L215.4844,29 L215.4844,16.6094 Z " fill="#000000"/><text fill="#000000" font-family="sans-serif" font-size="12" lengthAdjust="spacing" textLength="208" x="233.5" y="27.1543">tosca.nodes.Container.Database</text><line style="stroke:#A80036;stroke-width:1.5;" x1="205.5" x2="443.5" y1="39" y2="39"/><line style="stroke:#A80036;stroke-width:1.5;" x1="205.5" x2="443.5" y1="47" y2="47"/><!--MD5=[97204a5559efccf562f569c8fb8f21cf]
class tosca.nodes.Container.Database.MySQL--><rect codeLine="4" fill="#FEFECE" filter="url(#fn981jyd7wram)" height="95.2188" id="tosca.nodes.Container.Database.MySQL" style="stroke:#A80036;stroke-width:1.5;" width="288" x="345.5" y="151.5"/><ellipse cx="362.75" cy="167.5" fill="#008000" rx="11" ry="11" style="stroke:#A80036;stroke-width:1.0;"/><path d="M358.7344,161.1094 L361.375,161.1094 L364.8281,170.1094 L364.8281,161.1094 L366.9844,161.1094 L366.9844,173.5 L364.3594,173.5 L360.8906,164.5 L360.8906,173.5 L358.7344,173.5 L358.7344,161.1094 Z " fill="#000000"/><text fill="#000000" font-family="sans-serif" font-size="12" lengthAdjust="spacing" textLength="251" x="377.25" y="171.6543">tosca.nodes.Container.Database.MySQL</text><line style="stroke:#A80036;stroke-width:1.5;" x1="346.5" x2="632.5" y1="183.5" y2="183.5"/><ellipse cx="356.5" cy="211.3047" rx="3" ry="3" style="stroke:#038048;stroke-width:1.0;fill:none;"/><text fill="#000000" font-family="sans-serif" font-size="11" lengthAdjust="spacing" textLength="41" x="365.5" y="214.5151">volume</text><text fill="#000000" font-family="sans-serif" font-size="11" lengthAdjust="spacing" textLength="262" x="365.5" y="227.3198">capability : tosca.capabilities.Attachment[0..1]</text><text fill="#000000" font-family="sans-serif" font-size="11" lengthAdjust="spacing" textLength="255" x="365.5" y="240.1245">relationship : tosca.relationships.AttachesTo</text><line style="stroke:#A80036;stroke-width:1.0;stroke-dasharray:1.0,2.0;" x1="346.5" x2="451" y1="197.9023" y2="197.9023"/><text fill="#000000" font-family="sans-serif" font-size="11" lengthAdjust="spacing" textLength="77" x="451" y="201.2104">requirements</text><line style="stroke:#A80036;stroke-width:1.0;stroke-dasharray:1.0,2.0;" x1="528" x2="632.5" y1="197.9023" y2="197.9023"/><!--MD5=[ce9783f5ecc64ae0ba232a04fa16cf96]
class tosca.capabilities.Attachment--><rect codeLine="74" fill="#DDDDDD" filter="url(#fn981jyd7wram)" height="48" id="tosca.capabilities.Attachment" style="stroke:#A80036;stroke-width:1.5;" width="219" x="1483" y="175"/><ellipse cx="1498" cy="191" fill="#008000" rx="11" ry="11" style="stroke:#A80036;stroke-width:1.0;"/><path d="M1500.9688,196.6406 Q1500.3906,196.9375 1499.75,197.0781 Q1499.1094,197.2344 1498.4063,197.2344 Q1495.9063,197.2344 1494.5781,195.5938 Q1493.2656,193.9375 1493.2656,190.8125 Q1493.2656,187.6875 1494.5781,186.0313 Q1495.9063,184.375 1498.4063,184.375 Q1499.1094,184.375 1499.75,184.5313 Q1500.4063,184.6875 1500.9688,184.9844 L1500.9688,187.7031 Q1500.3438,187.125 1499.75,186.8594 Q1499.1563,186.5781 1498.5313,186.5781 Q1497.1875,186.5781 1496.5,187.6563 Q1495.8125,188.7188 1495.8125,190.8125 Q1495.8125,192.9063 1496.5,193.9844 Q1497.1875,195.0469 1498.5313,195.0469 Q1499.1563,195.0469 1499.75,194.7813 Q1500.3438,194.5 1500.9688,193.9219 L1500.9688,196.6406 Z " fill="#000000"/><text fill="#000000" font-family="sans-serif" font-size="12" lengthAdjust="spacing" textLength="187" x="1512" y="195.1543">tosca.capabilities.Attachment</text><line style="stroke:#A80036;stroke-width:1.5;" x1="1484" x2="1701" y1="207" y2="207"/><line style="stroke:#A80036;stroke-width:1.5;" x1="1484" x2="1701" y1="215" y2="215"/><!--MD5=[7e5ccb913ad4872bc2e95462c5c9fac2]
class tosca.relationships.AttachesTo--><rect codeLine="76" fill="#DDDDDD" filter="url(#fn981jyd7wram)" height="48" id="tosca.relationships.AttachesTo" style="stroke:#A80036;stroke-width:1.5;" width="227" x="598" y="343"/><ellipse cx="613" cy="359" fill="#008000" rx="11" ry="11" style="stroke:#A80036;stroke-width:1.0;"/><path d="M614.2031,359.1406 Q614.5625,359.2188 614.8281,359.5 Q615.1094,359.7656 615.5,360.5469 L617.7344,365 L615.0469,365 L613.5469,361.875 Q613.4844,361.7344 613.375,361.5 Q612.7188,360.1094 611.8281,360.1094 L611.0469,360.1094 L611.0469,365 L608.6094,365 L608.6094,352.6094 L612.1406,352.6094 Q614.5313,352.6094 615.5625,353.4531 Q616.6094,354.2969 616.6094,356.2031 Q616.6094,357.4844 615.9844,358.25 Q615.375,359 614.2031,359.1406 Z M611.0469,354.6719 L611.0469,358.0469 L612.2031,358.0469 Q613.2188,358.0469 613.6406,357.6563 Q614.0781,357.25 614.0781,356.3438 Q614.0781,355.4531 613.6406,355.0625 Q613.2188,354.6719 612.2031,354.6719 L611.0469,354.6719 Z " fill="#000000"/><text fill="#000000" font-family="sans-serif" font-size="12" lengthAdjust="spacing" textLength="195" x="627" y="363.1543">tosca.relationships.AttachesTo</text><line style="stroke:#A80036;stroke-width:1.5;" x1="599" x2="824" y1="375" y2="375"/><line style="stroke:#A80036;stroke-width:1.5;" x1="599" x2="824" y1="383" y2="383"/><!--MD5=[dd95aade1d2730ab0b757d3751457af3]
class tosca.nodes.Container.WebApplication--><rect codeLine="14" fill="#DDDDDD" filter="url(#fn981jyd7wram)" height="48" id="tosca.nodes.Container.WebApplication" style="stroke:#A80036;stroke-width:1.5;" width="275" x="704" y="7"/><ellipse cx="719" cy="23" fill="#008000" rx="11" ry="11" style="stroke:#A80036;stroke-width:1.0;"/><path d="M714.9844,16.6094 L717.625,16.6094 L721.0781,25.6094 L721.0781,16.6094 L723.2344,16.6094 L723.2344,29 L720.6094,29 L717.1406,20 L717.1406,29 L714.9844,29 L714.9844,16.6094 Z " fill="#000000"/><text fill="#000000" font-family="sans-serif" font-size="12" lengthAdjust="spacing" textLength="243" x="733" y="27.1543">tosca.nodes.Container.WebApplication</text><line style="stroke:#A80036;stroke-width:1.5;" x1="705" x2="978" y1="39" y2="39"/><line style="stroke:#A80036;stroke-width:1.5;" x1="705" x2="978" y1="47" y2="47"/><!--MD5=[cc2f2638b637d94ccf142a8ff0ba229b]
class tosca.nodes.Container.WebApplication.Wordpress--><rect codeLine="16" fill="#FEFECE" filter="url(#fn981jyd7wram)" height="133.6328" id="tosca.nodes.Container.WebApplication.Wordpress" style="stroke:#A80036;stroke-width:1.5;" width="346" x="668.5" y="132"/><ellipse cx="683.5" cy="148" fill="#008000" rx="11" ry="11" style="stroke:#A80036;stroke-width:1.0;"/><path d="M679.4844,141.6094 L682.125,141.6094 L685.5781,150.6094 L685.5781,141.6094 L687.7344,141.6094 L687.7344,154 L685.1094,154 L681.6406,145 L681.6406,154 L679.4844,154 L679.4844,141.6094 Z " fill="#000000"/><text fill="#000000" font-family="sans-serif" font-size="12" lengthAdjust="spacing" textLength="314" x="697.5" y="152.1543">tosca.nodes.Container.WebApplication.Wordpress</text><line style="stroke:#A80036;stroke-width:1.5;" x1="669.5" x2="1013.5" y1="164" y2="164"/><ellipse cx="679.5" cy="191.8047" rx="3" ry="3" style="stroke:#038048;stroke-width:1.0;fill:none;"/><text fill="#000000" font-family="sans-serif" font-size="11" font-weight="bold" lengthAdjust="spacing" textLength="123" x="688.5" y="195.0151">wordpress_db_host</text><text fill="#000000" font-family="sans-serif" font-size="11" lengthAdjust="spacing" textLength="290" x="688.5" y="207.8198">capability : tosca.capabilities.Endpoint.Database[1]</text><text fill="#000000" font-family="sans-serif" font-size="11" lengthAdjust="spacing" textLength="259" x="688.5" y="220.6245">relationship : tosca.relationships.ConnectsTo</text><ellipse cx="679.5" cy="230.2188" rx="3" ry="3" style="stroke:#038048;stroke-width:1.0;fill:none;"/><text fill="#000000" font-family="sans-serif" font-size="11" lengthAdjust="spacing" textLength="41" x="688.5" y="233.4292">volume</text><text fill="#000000" font-family="sans-serif" font-size="11" lengthAdjust="spacing" textLength="262" x="688.5" y="246.2339">capability : tosca.capabilities.Attachment[0..1]</text><text fill="#000000" font-family="sans-serif" font-size="11" lengthAdjust="spacing" textLength="255" x="688.5" y="259.0386">relationship : tosca.relationships.AttachesTo</text><line style="stroke:#A80036;stroke-width:1.0;stroke-dasharray:1.0,2.0;" x1="669.5" x2="803" y1="178.4023" y2="178.4023"/><text fill="#000000" font-family="sans-serif" font-size="11" lengthAdjust="spacing" textLength="77" x="803" y="181.7104">requirements</text><line style="stroke:#A80036;stroke-width:1.0;stroke-dasharray:1.0,2.0;" x1="880" x2="1013.5" y1="178.4023" y2="178.4023"/><!--MD5=[64b4d8b646f21ae4fe061769428b02aa]
class tosca.capabilities.Endpoint.Database--><rect codeLine="41" fill="#DDDDDD" filter="url(#fn981jyd7wram)" height="48" id="tosca.capabilities.Endpoint.Database" style="stroke:#A80036;stroke-width:1.5;" width="267" x="2184" y="175"/><ellipse cx="2199" cy="191" fill="#008000" rx="11" ry="11" style="stroke:#A80036;stroke-width:1.0;"/><path d="M2201.9688,196.6406 Q2201.3906,196.9375 2200.75,197.0781 Q2200.1094,197.2344 2199.4063,197.2344 Q2196.9063,197.2344 2195.5781,195.5938 Q2194.2656,193.9375 2194.2656,190.8125 Q2194.2656,187.6875 2195.5781,186.0313 Q2196.9063,184.375 2199.4063,184.375 Q2200.1094,184.375 2200.75,184.5313 Q2201.4063,184.6875 2201.9688,184.9844 L2201.9688,187.7031 Q2201.3438,187.125 2200.75,186.8594 Q2200.1563,186.5781 2199.5313,186.5781 Q2198.1875,186.5781 2197.5,187.6563 Q2196.8125,188.7188 2196.8125,190.8125 Q2196.8125,192.9063 2197.5,193.9844 Q2198.1875,195.0469 2199.5313,195.0469 Q2200.1563,195.0469 2200.75,194.7813 Q2201.3438,194.5 2201.9688,193.9219 L2201.9688,196.6406 Z " fill="#000000"/><text fill="#000000" font-family="sans-serif" font-size="12" lengthAdjust="spacing" textLength="235" x="2213" y="195.1543">tosca.capabilities.Endpoint.Database</text><line style="stroke:#A80036;stroke-width:1.5;" x1="2185" x2="2450" y1="207" y2="207"/><line style="stroke:#A80036;stroke-width:1.5;" x1="2185" x2="2450" y1="215" y2="215"/><!--MD5=[092ea08713e9f0a14d7fdee487f2ff56]
class tosca.relationships.ConnectsTo--><rect codeLine="43" fill="#DDDDDD" filter="url(#fn981jyd7wram)" height="48" id="tosca.relationships.ConnectsTo" style="stroke:#A80036;stroke-width:1.5;" width="230" x="1548.5" y="343"/><ellipse cx="1563.5" cy="359" fill="#008000" rx="11" ry="11" style="stroke:#A80036;stroke-width:1.0;"/><path d="M1564.7031,359.1406 Q1565.0625,359.2188 1565.3281,359.5 Q1565.6094,359.7656 1566,360.5469 L1568.2344,365 L1565.5469,365 L1564.0469,361.875 Q1563.9844,361.7344 1563.875,361.5 Q1563.2188,360.1094 1562.3281,360.1094 L1561.5469,360.1094 L1561.5469,365 L1559.1094,365 L1559.1094,352.6094 L1562.6406,352.6094 Q1565.0313,352.6094 1566.0625,353.4531 Q1567.1094,354.2969 1567.1094,356.2031 Q1567.1094,357.4844 1566.4844,358.25 Q1565.875,359 1564.7031,359.1406 Z M1561.5469,354.6719 L1561.5469,358.0469 L1562.7031,358.0469 Q1563.7188,358.0469 1564.1406,357.6563 Q1564.5781,357.25 1564.5781,356.3438 Q1564.5781,355.4531 1564.1406,355.0625 Q1563.7188,354.6719 1562.7031,354.6719 L1561.5469,354.6719 Z " fill="#000000"/><text fill="#000000" font-family="sans-serif" font-size="12" lengthAdjust="spacing" textLength="198" x="1577.5" y="363.1543">tosca.relationships.ConnectsTo</text><line style="stroke:#A80036;stroke-width:1.5;" x1="1549.5" x2="1777.5" y1="375" y2="375"/><line style="stroke:#A80036;stroke-width:1.5;" x1="1549.5" x2="1777.5" y1="383" y2="383"/><!--MD5=[7ebeeaa0317f084ccba310d04d9c8740]
class tosca.nodes.Container.Application--><rect codeLine="66" fill="#DDDDDD" filter="url(#fn981jyd7wram)" height="48" id="tosca.nodes.Container.Application" style="stroke:#A80036;stroke-width:1.5;" width="248" x="1771.5" y="7"/><ellipse cx="1786.5" cy="23" fill="#008000" rx="11" ry="11" style="stroke:#A80036;stroke-width:1.0;"/><path d="M1782.4844,16.6094 L1785.125,16.6094 L1788.5781,25.6094 L1788.5781,16.6094 L1790.7344,16.6094 L1790.7344,29 L1788.1094,29 L1784.6406,20 L1784.6406,29 L1782.4844,29 L1782.4844,16.6094 Z " fill="#000000"/><text fill="#000000" font-family="sans-serif" font-size="12" lengthAdjust="spacing" textLength="216" x="1800.5" y="27.1543">tosca.nodes.Container.Application</text><line style="stroke:#A80036;stroke-width:1.5;" x1="1772.5" x2="2018.5" y1="39" y2="39"/><line style="stroke:#A80036;stroke-width:1.5;" x1="1772.5" x2="2018.5" y1="47" y2="47"/><!--MD5=[35b550f99731699f79845b94ad922ce6]
class tosca.nodes.Container.Application.UserApp--><rect codeLine="35" fill="#FEFECE" filter="url(#fn981jyd7wram)" height="95.2188" id="tosca.nodes.Container.Application.UserApp" style="stroke:#A80036;stroke-width:1.5;" width="316" x="1737.5" y="151.5"/><ellipse cx="1757.45" cy="167.5" fill="#008000" rx="11" ry="11" style="stroke:#A80036;stroke-width:1.0;"/><path d="M1753.4344,161.1094 L1756.075,161.1094 L1759.5281,170.1094 L1759.5281,161.1094 L1761.6844,161.1094 L1761.6844,173.5 L1759.0594,173.5 L1755.5906,164.5 L1755.5906,173.5 L1753.4344,173.5 L1753.4344,161.1094 Z " fill="#000000"/><text fill="#000000" font-family="sans-serif" font-size="12" lengthAdjust="spacing" textLength="273" x="1772.55" y="171.6543">tosca.nodes.Container.Application.UserApp</text><line style="stroke:#A80036;stroke-width:1.5;" x1="1738.5" x2="2052.5" y1="183.5" y2="183.5"/><ellipse cx="1748.5" cy="211.3047" rx="3" ry="3" style="stroke:#038048;stroke-width:1.0;fill:none;"/><text fill="#000000" font-family="sans-serif" font-size="11" font-weight="bold" lengthAdjust="spacing" textLength="90" x="1757.5" y="214.5151">MONGO_HOST</text><text fill="#000000" font-family="sans-serif" font-size="11" lengthAdjust="spacing" textLength="290" x="1757.5" y="227.3198">capability : tosca.capabilities.Endpoint.Database[1]</text><text fill="#000000" font-family="sans-serif" font-size="11" lengthAdjust="spacing" textLength="259" x="1757.5" y="240.1245">relationship : tosca.relationships.ConnectsTo</text><line style="stroke:#A80036;stroke-width:1.0;stroke-dasharray:1.0,2.0;" x1="1738.5" x2="1857" y1="197.9023" y2="197.9023"/><text fill="#000000" font-family="sans-serif" font-size="11" lengthAdjust="spacing" textLength="77" x="1857" y="201.2104">requirements</text><line style="stroke:#A80036;stroke-width:1.0;stroke-dasharray:1.0,2.0;" x1="1934" x2="2052.5" y1="197.9023" y2="197.9023"/><!--MD5=[1054d4c90d133ccab16196d78c3f3569]
class tosca.nodes.Container.Database.MongoDB--><rect codeLine="47" fill="#FEFECE" filter="url(#fn981jyd7wram)" height="95.2188" id="tosca.nodes.Container.Database.MongoDB" style="stroke:#A80036;stroke-width:1.5;" width="303" x="7" y="151.5"/><ellipse cx="22" cy="167.5" fill="#008000" rx="11" ry="11" style="stroke:#A80036;stroke-width:1.0;"/><path d="M17.9844,161.1094 L20.625,161.1094 L24.0781,170.1094 L24.0781,161.1094 L26.2344,161.1094 L26.2344,173.5 L23.6094,173.5 L20.1406,164.5 L20.1406,173.5 L17.9844,173.5 L17.9844,161.1094 Z " fill="#000000"/><text fill="#000000" font-family="sans-serif" font-size="12" lengthAdjust="spacing" textLength="271" x="36" y="171.6543">tosca.nodes.Container.Database.MongoDB</text><line style="stroke:#A80036;stroke-width:1.5;" x1="8" x2="309" y1="183.5" y2="183.5"/><ellipse cx="18" cy="211.3047" rx="3" ry="3" style="stroke:#038048;stroke-width:1.0;fill:none;"/><text fill="#000000" font-family="sans-serif" font-size="11" lengthAdjust="spacing" textLength="41" x="27" y="214.5151">volume</text><text fill="#000000" font-family="sans-serif" font-size="11" lengthAdjust="spacing" textLength="262" x="27" y="227.3198">capability : tosca.capabilities.Attachment[0..1]</text><text fill="#000000" font-family="sans-serif" font-size="11" lengthAdjust="spacing" textLength="255" x="27" y="240.1245">relationship : tosca.relationships.AttachesTo</text><line style="stroke:#A80036;stroke-width:1.0;stroke-dasharray:1.0,2.0;" x1="8" x2="120" y1="197.9023" y2="197.9023"/><text fill="#000000" font-family="sans-serif" font-size="11" lengthAdjust="spacing" textLength="77" x="120" y="201.2104">requirements</text><line style="stroke:#A80036;stroke-width:1.0;stroke-dasharray:1.0,2.0;" x1="197" x2="309" y1="197.9023" y2="197.9023"/><!--MD5=[5c5e425d384c559eb94e0408f9d91439]
class tosca.nodes.Container.Application.RabbitMQ--><rect codeLine="59" fill="#FEFECE" filter="url(#fn981jyd7wram)" height="82.4141" id="tosca.nodes.Container.Application.RabbitMQ" style="stroke:#A80036;stroke-width:1.5;" width="311" x="2828" y="158"/><ellipse cx="2843" cy="174" fill="#008000" rx="11" ry="11" style="stroke:#A80036;stroke-width:1.0;"/><path d="M2838.9844,167.6094 L2841.625,167.6094 L2845.0781,176.6094 L2845.0781,167.6094 L2847.2344,167.6094 L2847.2344,180 L2844.6094,180 L2841.1406,171 L2841.1406,180 L2838.9844,180 L2838.9844,167.6094 Z " fill="#000000"/><text fill="#000000" font-family="sans-serif" font-size="12" lengthAdjust="spacing" textLength="279" x="2857" y="178.1543">tosca.nodes.Container.Application.RabbitMQ</text><line style="stroke:#A80036;stroke-width:1.5;" x1="2829" x2="3138" y1="190" y2="190"/><ellipse cx="2839" cy="217.8047" rx="3" ry="3" style="stroke:#038048;stroke-width:1.0;fill:none;"/><text fill="#000000" font-family="sans-serif" font-size="11" lengthAdjust="spacing" textLength="90" x="2848" y="221.0151">queue_endpoint</text><text fill="#000000" font-family="sans-serif" font-size="11" lengthAdjust="spacing" textLength="217" x="2848" y="233.8198">type : tosca.capabilities.Endpoint[1..*]</text><line style="stroke:#A80036;stroke-width:1.0;stroke-dasharray:1.0,2.0;" x1="2829" x2="2951.5" y1="204.4023" y2="204.4023"/><text fill="#000000" font-family="sans-serif" font-size="11" lengthAdjust="spacing" textLength="64" x="2951.5" y="207.7104">capabilities</text><line style="stroke:#A80036;stroke-width:1.0;stroke-dasharray:1.0,2.0;" x1="3015.5" x2="3138" y1="204.4023" y2="204.4023"/><!--MD5=[2beb2447f73f446132538adcfbc9879b]
class tosca.capabilities.Endpoint--><rect codeLine="64" fill="#DDDDDD" filter="url(#fn981jyd7wram)" height="48" id="tosca.capabilities.Endpoint" style="stroke:#A80036;stroke-width:1.5;" width="202" x="2486.5" y="175"/><ellipse cx="2501.5" cy="191" fill="#008000" rx="11" ry="11" style="stroke:#A80036;stroke-width:1.0;"/><path d="M2504.4688,196.6406 Q2503.8906,196.9375 2503.25,197.0781 Q2502.6094,197.2344 2501.9063,197.2344 Q2499.4063,197.2344 2498.0781,195.5938 Q2496.7656,193.9375 2496.7656,190.8125 Q2496.7656,187.6875 2498.0781,186.0313 Q2499.4063,184.375 2501.9063,184.375 Q2502.6094,184.375 2503.25,184.5313 Q2503.9063,184.6875 2504.4688,184.9844 L2504.4688,187.7031 Q2503.8438,187.125 2503.25,186.8594 Q2502.6563,186.5781 2502.0313,186.5781 Q2500.6875,186.5781 2500,187.6563 Q2499.3125,188.7188 2499.3125,190.8125 Q2499.3125,192.9063 2500,193.9844 Q2500.6875,195.0469 2502.0313,195.0469 Q2502.6563,195.0469 2503.25,194.7813 Q2503.8438,194.5 2504.4688,193.9219 L2504.4688,196.6406 Z " fill="#000000"/><text fill="#000000" font-family="sans-serif" font-size="12" lengthAdjust="spacing" textLength="170" x="2515.5" y="195.1543">tosca.capabilities.Endpoint</text><line style="stroke:#A80036;stroke-width:1.5;" x1="2487.5" x2="2687.5" y1="207" y2="207"/><line style="stroke:#A80036;stroke-width:1.5;" x1="2487.5" x2="2687.5" y1="215" y2="215"/><!--MD5=[7e478075d1809f676c316be016fa7c80]
class tosca.nodes.Container.Application.AppWithVolume--><rect codeLine="68" fill="#FEFECE" filter="url(#fn981jyd7wram)" height="95.2188" id="tosca.nodes.Container.Application.AppWithVolume" style="stroke:#A80036;stroke-width:1.5;" width="349" x="1050" y="151.5"/><ellipse cx="1065" cy="167.5" fill="#008000" rx="11" ry="11" style="stroke:#A80036;stroke-width:1.0;"/><path d="M1060.9844,161.1094 L1063.625,161.1094 L1067.0781,170.1094 L1067.0781,161.1094 L1069.2344,161.1094 L1069.2344,173.5 L1066.6094,173.5 L1063.1406,164.5 L1063.1406,173.5 L1060.9844,173.5 L1060.9844,161.1094 Z " fill="#000000"/><text fill="#000000" font-family="sans-serif" font-size="12" lengthAdjust="spacing" textLength="317" x="1079" y="171.6543">tosca.nodes.Container.Application.AppWithVolume</text><line style="stroke:#A80036;stroke-width:1.5;" x1="1051" x2="1398" y1="183.5" y2="183.5"/><ellipse cx="1061" cy="211.3047" rx="3" ry="3" style="stroke:#038048;stroke-width:1.0;fill:none;"/><text fill="#000000" font-family="sans-serif" font-size="11" lengthAdjust="spacing" textLength="41" x="1070" y="214.5151">volume</text><text fill="#000000" font-family="sans-serif" font-size="11" lengthAdjust="spacing" textLength="262" x="1070" y="227.3198">capability : tosca.capabilities.Attachment[0..1]</text><text fill="#000000" font-family="sans-serif" font-size="11" lengthAdjust="spacing" textLength="255" x="1070" y="240.1245">relationship : tosca.relationships.AttachesTo</text><line style="stroke:#A80036;stroke-width:1.0;stroke-dasharray:1.0,2.0;" x1="1051" x2="1186" y1="197.9023" y2="197.9023"/><text fill="#000000" font-family="sans-serif" font-size="11" lengthAdjust="spacing" textLength="77" x="1186" y="201.2104">requirements</text><line style="stroke:#A80036;stroke-width:1.0;stroke-dasharray:1.0,2.0;" x1="1263" x2="1398" y1="197.9023" y2="197.9023"/><!--MD5=[93fb86a21a8599c453a722816a321787]
reverse link tosca.nodes.Container.Database to tosca.nodes.Container.Database.MySQL--><path codeLine="3" d="M361.7,69.42 C385.77,93.65 417.31,125.37 443.03,151.25 " fill="none" id="tosca.nodes.Container.Database-backto-tosca.nodes.Container.Database.MySQL" style="stroke:#A80036;stroke-width:1.0;"/><polygon fill="none" points="356.58,74.2,347.44,55.08,366.51,64.33,356.58,74.2" style="stroke:#A80036;stroke-width:1.0;"/><!--MD5=[7d607cbb221c2b36c64fb6a4456028ef]
reverse link tosca.nodes.Container.Database.MySQL to tosca.capabilities.Attachment--><path codeLine="11" d="M605.05,146.71 C620.13,141.14 635.54,136.04 650.5,132 C747.69,105.77 774.56,108.68 875,102 C965.28,95.99 1231.79,92.19 1416.5,132 C1460.13,141.4 1507.27,159.83 1541.77,174.98 " fill="none" id="tosca.nodes.Container.Database.MySQL-backto-tosca.capabilities.Attachment" style="stroke:#A80036;stroke-width:1.0;"/><polygon fill="#A80036" points="592.47,151.5,599.5006,153.1034,603.6847,147.2302,596.6541,145.6269,592.47,151.5" style="stroke:#A80036;stroke-width:1.0;"/><text fill="#000000" font-family="sans-serif" font-size="13" lengthAdjust="spacing" textLength="47" x="876" y="98.0669">volume</text><text fill="#000000" font-family="sans-serif" font-size="13" lengthAdjust="spacing" textLength="24" x="1531.8454" y="163.9869">0..1</text><!--MD5=[fbb00d448d16af0f370f166a943527a7]
link tosca.nodes.Container.Database.MySQL to tosca.relationships.AttachesTo--><path codeLine="13" d="M538.57,246.64 C562.16,268 591.37,292.96 619.5,313 C633.1,322.69 648.61,332.17 662.96,340.36 " fill="none" id="tosca.nodes.Container.Database.MySQL-to-tosca.relationships.AttachesTo" style="stroke:#A80036;stroke-width:1.0;stroke-dasharray:7.0,7.0;"/><polygon fill="#A80036" points="667.37,342.86,661.4955,334.9549,663.0148,340.4039,657.5658,341.9233,667.37,342.86" style="stroke:#A80036;stroke-width:1.0;"/><text fill="#000000" font-family="sans-serif" font-size="13" lengthAdjust="spacing" textLength="125" x="620.5" y="309.0669">volume.relationship</text><!--MD5=[afc74ecff7be2318c20edfee47413f54]
reverse link tosca.nodes.Container.WebApplication to tosca.nodes.Container.WebApplication.Wordpress--><path codeLine="15" d="M841.5,75.33 C841.5,92.57 841.5,112.79 841.5,131.79 " fill="none" id="tosca.nodes.Container.WebApplication-backto-tosca.nodes.Container.WebApplication.Wordpress" style="stroke:#A80036;stroke-width:1.0;"/><polygon fill="none" points="834.5,75.08,841.5,55.08,848.5,75.08,834.5,75.08" style="stroke:#A80036;stroke-width:1.0;"/><!--MD5=[ce6a6467fff2d6bc764d8a2e3b59fca8]
reverse link tosca.nodes.Container.WebApplication.Wordpress to tosca.capabilities.Endpoint.Database--><path codeLine="26" d="M1027.2,133.16 C1028.97,132.77 1030.74,132.38 1032.5,132 C1258.27,83.67 1843.55,95.27 2071.5,132 C2130.93,141.58 2196.65,159.89 2245.19,174.95 " fill="none" id="tosca.nodes.Container.WebApplication.Wordpress-backto-tosca.capabilities.Endpoint.Database" style="stroke:#A80036;stroke-width:1.0;"/><polygon fill="#A80036" points="1014.55,136.18,1021.3141,138.6794,1026.2228,133.397,1019.4587,130.8976,1014.55,136.18" style="stroke:#A80036;stroke-width:1.0;"/><text fill="#000000" font-family="sans-serif" font-size="13" lengthAdjust="spacing" textLength="123" x="1388" y="98.0669">wordpress_db_host</text><text fill="#000000" font-family="sans-serif" font-size="13" lengthAdjust="spacing" textLength="8" x="2217.6356" y="163.9492">1</text><!--MD5=[0f5c6f35a0d6f9ad2fbefc692212d732]
link tosca.nodes.Container.WebApplication.Wordpress to tosca.relationships.ConnectsTo--><path codeLine="28" d="M1014.7,261.31 C1020.68,262.96 1026.63,264.53 1032.5,266 C1207.62,309.77 1415.1,338.31 1543.02,353.28 " fill="none" id="tosca.nodes.Container.WebApplication.Wordpress-to-tosca.relationships.ConnectsTo" style="stroke:#A80036;stroke-width:1.0;stroke-dasharray:7.0,7.0;"/><polygon fill="#A80036" points="1548.29,353.9,1539.8198,348.8744,1543.3243,353.315,1538.8838,356.8195,1548.29,353.9" style="stroke:#A80036;stroke-width:1.0;"/><text fill="#000000" font-family="sans-serif" font-size="13" lengthAdjust="spacing" textLength="201" x="1256.5" y="309.0669">wordpress_db_host.relationship</text><!--MD5=[d054257c2f755fa209b1745942cafdf5]
reverse link tosca.nodes.Container.WebApplication.Wordpress to tosca.capabilities.Attachment--><path codeLine="30" d="M953.75,125.93 C973.77,116.05 994.96,107.45 1016,102 C1204.88,53.03 1435.2,132.32 1538.19,174.84 " fill="none" id="tosca.nodes.Container.WebApplication.Wordpress-backto-tosca.capabilities.Attachment" style="stroke:#A80036;stroke-width:1.0;"/><polygon fill="#A80036" points="942.11,131.88,949.2726,132.7147,952.7979,126.424,945.6353,125.5894,942.11,131.88" style="stroke:#A80036;stroke-width:1.0;"/><text fill="#000000" font-family="sans-serif" font-size="13" lengthAdjust="spacing" textLength="47" x="1017" y="98.0669">volume</text><text fill="#000000" font-family="sans-serif" font-size="13" lengthAdjust="spacing" textLength="24" x="1497.1981" y="163.811">0..1</text><!--MD5=[d86df7d81180a44ad2a96badce9ad7a6]
link tosca.nodes.Container.WebApplication.Wordpress to tosca.relationships.AttachesTo--><path codeLine="32" d="M789.75,266.08 C770,291.3 748.55,318.69 733.11,338.41 " fill="none" id="tosca.nodes.Container.WebApplication.Wordpress-to-tosca.relationships.AttachesTo" style="stroke:#A80036;stroke-width:1.0;stroke-dasharray:7.0,7.0;"/><polygon fill="#A80036" points="729.71,342.75,738.4149,338.143,732.7985,338.8179,732.1236,333.2015,729.71,342.75" style="stroke:#A80036;stroke-width:1.0;"/><text fill="#000000" font-family="sans-serif" font-size="13" lengthAdjust="spacing" textLength="125" x="766.5" y="309.0669">volume.relationship</text><!--MD5=[bc5554732f59cb128b71c0fa5050f444]
reverse link tosca.nodes.Container.Application to tosca.nodes.Container.Application.UserApp--><path codeLine="34" d="M1895.5,75.42 C1895.5,98.72 1895.5,127.46 1895.5,151.25 " fill="none" id="tosca.nodes.Container.Application-backto-tosca.nodes.Container.Application.UserApp" style="stroke:#A80036;stroke-width:1.0;"/><polygon fill="none" points="1888.5,75.08,1895.5,55.08,1902.5,75.08,1888.5,75.08" style="stroke:#A80036;stroke-width:1.0;"/><!--MD5=[c0da05b2e4d10b8ea89263d35309df67]
reverse link tosca.nodes.Container.Application.UserApp to tosca.capabilities.Endpoint.Database--><path codeLine="42" d="M2066.71,199 C2105.78,199 2146.75,199 2183.98,199 " fill="none" id="tosca.nodes.Container.Application.UserApp-backto-tosca.capabilities.Endpoint.Database" style="stroke:#A80036;stroke-width:1.0;"/><polygon fill="#A80036" points="2053.54,199,2059.54,203,2065.54,199,2059.54,195,2053.54,199" style="stroke:#A80036;stroke-width:1.0;"/><text fill="#000000" font-family="sans-serif" font-size="13" lengthAdjust="spacing" textLength="94" x="2071.75" y="192.0669">MONGO_HOST</text><text fill="#000000" font-family="sans-serif" font-size="13" lengthAdjust="spacing" textLength="8" x="2168.0296" y="195.6371">1</text><!--MD5=[e8adb5464599d1ba90842f4641457b72]
link tosca.nodes.Container.Application.UserApp to tosca.relationships.ConnectsTo--><path codeLine="44" d="M1830.26,246.68 C1788.14,276.82 1734.91,314.9 1700.07,339.83 " fill="none" id="tosca.nodes.Container.Application.UserApp-to-tosca.relationships.ConnectsTo" style="stroke:#A80036;stroke-width:1.0;stroke-dasharray:7.0,7.0;"/><polygon fill="#A80036" points="1695.92,342.81,1705.5666,340.8242,1699.9858,339.8998,1700.9102,334.319,1695.92,342.81" style="stroke:#A80036;stroke-width:1.0;"/><text fill="#000000" font-family="sans-serif" font-size="13" lengthAdjust="spacing" textLength="172" x="1759.5" y="309.0669">MONGO_HOST.relationship</text><!--MD5=[39847e8128286274e8a046beba2e8bae]
reverse link tosca.nodes.Container.Database to tosca.nodes.Container.Database.MongoDB--><path codeLine="46" d="M287.08,69.42 C262.85,93.65 231.13,125.37 205.25,151.25 " fill="none" id="tosca.nodes.Container.Database-backto-tosca.nodes.Container.Database.MongoDB" style="stroke:#A80036;stroke-width:1.0;"/><polygon fill="none" points="282.33,64.27,301.42,55.08,292.23,74.17,282.33,64.27" style="stroke:#A80036;stroke-width:1.0;"/><!--MD5=[03ed6306375243b9e714e12485577e4f]
reverse link tosca.nodes.Container.Database.MongoDB to tosca.capabilities.Attachment--><path codeLine="54" d="M275.59,146.9 C292.72,140.95 310.37,135.7 327.5,132 C564.04,80.88 1180.21,79.74 1416.5,132 C1459.92,141.6 1506.87,159.91 1541.36,174.97 " fill="none" id="tosca.nodes.Container.Database.MongoDB-backto-tosca.capabilities.Attachment" style="stroke:#A80036;stroke-width:1.0;"/><polygon fill="#A80036" points="263.21,151.34,270.2081,153.0796,274.5055,147.2889,267.5074,145.5493,263.21,151.34" style="stroke:#A80036;stroke-width:1.0;"/><text fill="#000000" font-family="sans-serif" font-size="13" lengthAdjust="spacing" textLength="47" x="950" y="98.0669">volume</text><text fill="#000000" font-family="sans-serif" font-size="13" lengthAdjust="spacing" textLength="24" x="1501.1804" y="163.9743">0..1</text><!--MD5=[b0f87abffdc7896d643e6ddafa86efb3]
link tosca.nodes.Container.Database.MongoDB to tosca.relationships.AttachesTo--><path codeLine="56" d="M276.02,246.54 C293.25,253.18 310.8,259.84 327.5,266 C387.1,288 401.31,295.91 462.5,313 C504.63,324.77 551.41,335.36 592.94,343.92 " fill="none" id="tosca.nodes.Container.Database.MongoDB-to-tosca.relationships.AttachesTo" style="stroke:#A80036;stroke-width:1.0;stroke-dasharray:7.0,7.0;"/><polygon fill="#A80036" points="597.97,344.96,589.9676,339.2187,593.0738,343.9465,588.346,347.0527,597.97,344.96" style="stroke:#A80036;stroke-width:1.0;"/><text fill="#000000" font-family="sans-serif" font-size="13" lengthAdjust="spacing" textLength="125" x="463.5" y="309.0669">volume.relationship</text><!--MD5=[26721696c89f0cb88d9b8896e2753202]
reverse link tosca.nodes.Container.Application to tosca.nodes.Container.Application.RabbitMQ--><path codeLine="58" d="M2040.08,44.93 C2202.85,60.62 2474.87,90.26 2706.5,132 C2746.4,139.19 2789.15,148.54 2828.85,157.94 " fill="none" id="tosca.nodes.Container.Application-backto-tosca.nodes.Container.Application.RabbitMQ" style="stroke:#A80036;stroke-width:1.0;"/><polygon fill="none" points="2039.05,51.86,2019.8,42.99,2040.38,37.93,2039.05,51.86" style="stroke:#A80036;stroke-width:1.0;"/><!--MD5=[b4fc502c39567b4a25c4ce3204daf558]
link tosca.capabilities.Endpoint to tosca.nodes.Container.Application.RabbitMQ--><path codeLine="65" d="M2688.71,199 C2727.02,199 2771.75,199 2814.62,199 " fill="none" id="tosca.capabilities.Endpoint-to-tosca.nodes.Container.Application.RabbitMQ" style="stroke:#A80036;stroke-width:1.0;"/><polygon fill="#A80036" points="2827.85,199,2821.85,195,2815.85,199,2821.85,203,2827.85,199" style="stroke:#A80036;stroke-width:1.0;"/><text fill="#000000" font-family="sans-serif" font-size="13" lengthAdjust="spacing" textLength="103" x="2706.75" y="192.0669">queue_endpoint</text><text fill="#000000" font-family="sans-serif" font-size="13" lengthAdjust="spacing" textLength="23" x="2696.6349" y="211.5989">1..*</text><!--MD5=[190d3c8ed7ba0fcf0298bceec6088fce]
reverse link tosca.nodes.Container.Application to tosca.nodes.Container.Application.AppWithVolume--><path codeLine="67" d="M1771.87,59.41 C1685.77,78.83 1568.38,105.96 1465.5,132 C1441.42,138.09 1416.06,144.76 1391.2,151.45 " fill="none" id="tosca.nodes.Container.Application-backto-tosca.nodes.Container.Application.AppWithVolume" style="stroke:#A80036;stroke-width:1.0;"/><polygon fill="none" points="1770.35,52.58,1791.4,55.02,1773.42,66.24,1770.35,52.58" style="stroke:#A80036;stroke-width:1.0;"/><!--MD5=[51f3648e5ca9dcb8ac0a5be2ceb16f68]
reverse link tosca.nodes.Container.Application.AppWithVolume to tosca.capabilities.Attachment--><path codeLine="75" d="M1412.15,199 C1436.4,199 1460.57,199 1482.97,199 " fill="none" id="tosca.nodes.Container.Application.AppWithVolume-backto-tosca.capabilities.Attachment" style="stroke:#A80036;stroke-width:1.0;"/><polygon fill="#A80036" points="1399.07,199,1405.07,203,1411.07,199,1405.07,195,1399.07,199" style="stroke:#A80036;stroke-width:1.0;"/><text fill="#000000" font-family="sans-serif" font-size="13" lengthAdjust="spacing" textLength="47" x="1417.5" y="192.0669">volume</text><text fill="#000000" font-family="sans-serif" font-size="13" lengthAdjust="spacing" textLength="24" x="1451.1845" y="211.5516">0..1</text><!--MD5=[c774dd6ffafe6b17e0184c6d85f12823]
link tosca.nodes.Container.Application.AppWithVolume to tosca.relationships.AttachesTo--><path codeLine="77" d="M1097,246.52 C1037.56,267.68 965.72,292.51 900.5,313 C868.87,322.94 833.98,332.98 802.88,341.61 " fill="none" id="tosca.nodes.Container.Application.AppWithVolume-to-tosca.relationships.AttachesTo" style="stroke:#A80036;stroke-width:1.0;stroke-dasharray:7.0,7.0;"/><polygon fill="#A80036" points="797.92,342.98,807.6598,344.4417,802.7398,341.6499,805.5316,336.7299,797.92,342.98" style="stroke:#A80036;stroke-width:1.0;"/><text fill="#000000" font-family="sans-serif" font-size="13" lengthAdjust="spacing" textLength="125" x="945.5" y="309.0669">volume.relationship</text><!--MD5=[8af172b8ec5a7dd01631e4f94af6b848]
@startuml
set namespaceSeparator none
class "tosca.nodes.Container.Database" << (N,green) >> #DDDDDD
"tosca.nodes.Container.Database" <|- - "tosca.nodes.Container.Database.MySQL"
class "tosca.nodes.Container.Database.MySQL" << (N,green) >> {
.. requirements ..
+volume
 capability : tosca.capabilities.Attachment[0..1]
 relationship : tosca.relationships.AttachesTo
}
class "tosca.capabilities.Attachment" << (C,green) >> #DDDDDD
"tosca.nodes.Container.Database.MySQL" *- "0..1" "tosca.capabilities.Attachment" : volume
class "tosca.relationships.AttachesTo" << (R,green) >> #DDDDDD
"tosca.nodes.Container.Database.MySQL" ..> "tosca.relationships.AttachesTo" : volume.relationship
class "tosca.nodes.Container.WebApplication" << (N,green) >> #DDDDDD
"tosca.nodes.Container.WebApplication" <|- - "tosca.nodes.Container.WebApplication.Wordpress"
class "tosca.nodes.Container.WebApplication.Wordpress" << (N,green) >> {
.. requirements ..
+<b>wordpress_db_host
 capability : tosca.capabilities.Endpoint.Database[1]
 relationship : tosca.relationships.ConnectsTo
+volume
 capability : tosca.capabilities.Attachment[0..1]
 relationship : tosca.relationships.AttachesTo
}
class "tosca.capabilities.Endpoint.Database" << (C,green) >> #DDDDDD
"tosca.nodes.Container.WebApplication.Wordpress" *- "1" "tosca.capabilities.Endpoint.Database" : wordpress_db_host
class "tosca.relationships.ConnectsTo" << (R,green) >> #DDDDDD
"tosca.nodes.Container.WebApplication.Wordpress" ..> "tosca.relationships.ConnectsTo" : wordpress_db_host.relationship
class "tosca.capabilities.Attachment" << (C,green) >> #DDDDDD
"tosca.nodes.Container.WebApplication.Wordpress" *- "0..1" "tosca.capabilities.Attachment" : volume
class "tosca.relationships.AttachesTo" << (R,green) >> #DDDDDD
"tosca.nodes.Container.WebApplication.Wordpress" ..> "tosca.relationships.AttachesTo" : volume.relationship
class "tosca.nodes.Container.Application" << (N,green) >> #DDDDDD
"tosca.nodes.Container.Application" <|- - "tosca.nodes.Container.Application.UserApp"
class "tosca.nodes.Container.Application.UserApp" << (N,green) >> {
.. requirements ..
+<b>MONGO_HOST
 capability : tosca.capabilities.Endpoint.Database[1]
 relationship : tosca.relationships.ConnectsTo
}
class "tosca.capabilities.Endpoint.Database" << (C,green) >> #DDDDDD
"tosca.nodes.Container.Application.UserApp" *- "1" "tosca.capabilities.Endpoint.Database" : MONGO_HOST
class "tosca.relationships.ConnectsTo" << (R,green) >> #DDDDDD
"tosca.nodes.Container.Application.UserApp" ..> "tosca.relationships.ConnectsTo" : MONGO_HOST.relationship
class "tosca.nodes.Container.Database" << (N,green) >> #DDDDDD
"tosca.nodes.Container.Database" <|- - "tosca.nodes.Container.Database.MongoDB"
class "tosca.nodes.Container.Database.MongoDB" << (N,green) >> {
.. requirements ..
+volume
 capability : tosca.capabilities.Attachment[0..1]
 relationship : tosca.relationships.AttachesTo
}
class "tosca.capabilities.Attachment" << (C,green) >> #DDDDDD
"tosca.nodes.Container.Database.MongoDB" *- "0..1" "tosca.capabilities.Attachment" : volume
class "tosca.relationships.AttachesTo" << (R,green) >> #DDDDDD
"tosca.nodes.Container.Database.MongoDB" ..> "tosca.relationships.AttachesTo" : volume.relationship
class "tosca.nodes.Container.Application" << (N,green) >> #DDDDDD
"tosca.nodes.Container.Application" <|- - "tosca.nodes.Container.Application.RabbitMQ"
class "tosca.nodes.Container.Application.RabbitMQ" << (N,green) >> {
.. capabilities ..
+queue_endpoint
 type : tosca.capabilities.Endpoint[1..*]
}
class "tosca.capabilities.Endpoint" << (C,green) >> #DDDDDD
"tosca.capabilities.Endpoint" "1..*" -* "tosca.nodes.Container.Application.RabbitMQ" : queue_endpoint
class "tosca.nodes.Container.Application" << (N,green) >> #DDDDDD
"tosca.nodes.Container.Application" <|- - "tosca.nodes.Container.Application.AppWithVolume"
class "tosca.nodes.Container.Application.AppWithVolume" << (N,green) >> {
.. requirements ..
+volume
 capability : tosca.capabilities.Attachment[0..1]
 relationship : tosca.relationships.AttachesTo
}
class "tosca.capabilities.Attachment" << (C,green) >> #DDDDDD
"tosca.nodes.Container.Application.AppWithVolume" *- "0..1" "tosca.capabilities.Attachment" : volume
class "tosca.relationships.AttachesTo" << (R,green) >> #DDDDDD
"tosca.nodes.Container.Application.AppWithVolume" ..> "tosca.relationships.AttachesTo" : volume.relationship
@enduml

PlantUML version 1.2021.13(Mon Nov 01 11:38:45 GMT 2021)
(GPL source distribution)
Java Runtime: OpenJDK Runtime Environment
JVM: OpenJDK 64-Bit Server VM
Default Encoding: UTF-8
Language: en
Country: US
--></g></svg>