<?xml version="1.0" encoding="UTF-8" standalone="no"?><svg xmlns="http://www.w3.org/2000/svg" xmlns:xlink="http://www.w3.org/1999/xlink" contentScriptType="application/ecmascript" contentStyleType="text/css" height="280px" preserveAspectRatio="none" style="width:1776px;height:280px;background:#FFFFFF;" version="1.1" viewBox="0 0 1776 280" width="1776px" zoomAndPan="magnify"><defs><filter height="300%" id="fc6bmwpl29y4o" width="300%" x="-1" y="-1"><feGaussianBlur result="blurOut" stdDeviation="2.0"/><feColorMatrix in="blurOut" result="blurOut2" type="matrix" values="0 0 0 0 0 0 0 0 0 0 0 0 0 0 0 0 0 0 .4 0"/><feOffset dx="4.0" dy="4.0" in="blurOut2" result="blurOut3"/><feBlend in="SourceGraphic" in2="blurOut3" mode="normal"/></filter></defs><g><!--MD5=[906742ed5fe612f99ebaa7d173eee085]
class tosca.artifacts.Deployment.Image--><rect codeLine="2" fill="#DDDDDD" filter="url(#fc6bmwpl29y4o)" height="48" id="tosca.artifacts.Deployment.Image" style="stroke:#A80036;stroke-width:1.5;" width="243" x="1463" y="7"/><ellipse cx="1478" cy="23" fill="#008000" rx="11" ry="11" style="stroke:#A80036;stroke-width:1.0;"/><path d="M1478.1094,18.3438 L1476.9531,23.4219 L1479.2813,23.4219 L1478.1094,18.3438 Z M1476.625,16.1094 L1479.6094,16.1094 L1482.9688,28.5 L1480.5156,28.5 L1479.75,25.4375 L1476.4688,25.4375 L1475.7188,28.5 L1473.2813,28.5 L1476.625,16.1094 Z " fill="#000000"/><text fill="#000000" font-family="sans-serif" font-size="12" lengthAdjust="spacing" textLength="211" x="1492" y="27.1543">tosca.artifacts.Deployment.Image</text><line style="stroke:#A80036;stroke-width:1.5;" x1="1464" x2="1705" y1="39" y2="39"/><line style="stroke:#A80036;stroke-width:1.5;" x1="1464" x2="1705" y1="47" y2="47"/><!--MD5=[cbd23ad910e93bf44025473a09dd7d72]
class tosca.artifacts.Deployment.Image.Container.Docker--><rect codeLine="4" fill="#FEFECE" filter="url(#fc6bmwpl29y4o)" height="48" id="tosca.artifacts.Deployment.Image.Container.Docker" style="stroke:#A80036;stroke-width:1.5;" width="356" x="1406.5" y="167"/><ellipse cx="1421.5" cy="183" fill="#008000" rx="11" ry="11" style="stroke:#A80036;stroke-width:1.0;"/><path d="M1421.6094,178.3438 L1420.4531,183.4219 L1422.7813,183.4219 L1421.6094,178.3438 Z M1420.125,176.1094 L1423.1094,176.1094 L1426.4688,188.5 L1424.0156,188.5 L1423.25,185.4375 L1419.9688,185.4375 L1419.2188,188.5 L1416.7813,188.5 L1420.125,176.1094 Z " fill="#000000"/><text fill="#000000" font-family="sans-serif" font-size="12" lengthAdjust="spacing" textLength="324" x="1435.5" y="187.1543">tosca.artifacts.Deployment.Image.Container.Docker</text><line style="stroke:#A80036;stroke-width:1.5;" x1="1407.5" x2="1761.5" y1="199" y2="199"/><line style="stroke:#A80036;stroke-width:1.5;" x1="1407.5" x2="1761.5" y1="207" y2="207"/><!--MD5=[7ebeeaa0317f084ccba310d04d9c8740]
class tosca.nodes.Container.Application--><rect codeLine="20" fill="#DDDDDD" filter="url(#fc6bmwpl29y4o)" height="48" id="tosca.nodes.Container.Application" style="stroke:#A80036;stroke-width:1.5;" width="248" x="709.5" y="7"/><ellipse cx="724.5" cy="23" fill="#008000" rx="11" ry="11" style="stroke:#A80036;stroke-width:1.0;"/><path d="M720.4844,16.6094 L723.125,16.6094 L726.5781,25.6094 L726.5781,16.6094 L728.7344,16.6094 L728.7344,29 L726.1094,29 L722.6406,20 L722.6406,29 L720.4844,29 L720.4844,16.6094 Z " fill="#000000"/><text fill="#000000" font-family="sans-serif" font-size="12" lengthAdjust="spacing" textLength="216" x="738.5" y="27.1543">tosca.nodes.Container.Application</text><line style="stroke:#A80036;stroke-width:1.5;" x1="710.5" x2="956.5" y1="39" y2="39"/><line style="stroke:#A80036;stroke-width:1.5;" x1="710.5" x2="956.5" y1="47" y2="47"/><!--MD5=[9a8f4fba085d2142c4d4bd042069a00c]
class tosca.nodes.Container.Database--><rect codeLine="8" fill="#FEFECE" filter="url(#fc6bmwpl29y4o)" height="150.4375" id="tosca.nodes.Container.Database" style="stroke:#A80036;stroke-width:1.5;" width="301" x="434" y="116"/><ellipse cx="476.45" cy="132" fill="#008000" rx="11" ry="11" style="stroke:#A80036;stroke-width:1.0;"/><path d="M472.4344,125.6094 L475.075,125.6094 L478.5281,134.6094 L478.5281,125.6094 L480.6844,125.6094 L480.6844,138 L478.0594,138 L474.5906,129 L474.5906,138 L472.4344,138 L472.4344,125.6094 Z " fill="#000000"/><text fill="#000000" font-family="sans-serif" font-size="12" lengthAdjust="spacing" textLength="208" x="496.55" y="136.1543">tosca.nodes.Container.Database</text><line style="stroke:#A80036;stroke-width:1.5;" x1="435" x2="734" y1="148" y2="148"/><ellipse cx="445" cy="175.8047" rx="3" ry="3" style="stroke:#038048;stroke-width:1.0;fill:none;"/><text fill="#000000" font-family="sans-serif" font-size="11" lengthAdjust="spacing" textLength="71" x="454" y="179.0151">user : string</text><ellipse cx="445" cy="188.6094" rx="3" ry="3" style="stroke:#038048;stroke-width:1.0;fill:none;"/><text fill="#000000" font-family="sans-serif" font-size="11" lengthAdjust="spacing" textLength="75" x="454" y="191.8198">port : integer</text><ellipse cx="445" cy="201.4141" rx="3" ry="3" style="stroke:#038048;stroke-width:1.0;fill:none;"/><text fill="#000000" font-family="sans-serif" font-size="11" lengthAdjust="spacing" textLength="77" x="454" y="204.6245">name : string</text><ellipse cx="445" cy="214.2188" rx="3" ry="3" style="stroke:#038048;stroke-width:1.0;fill:none;"/><text fill="#000000" font-family="sans-serif" font-size="11" lengthAdjust="spacing" textLength="101" x="454" y="217.4292">password : string</text><line style="stroke:#A80036;stroke-width:1.0;stroke-dasharray:1.0,2.0;" x1="435" x2="555" y1="162.4023" y2="162.4023"/><text fill="#000000" font-family="sans-serif" font-size="11" lengthAdjust="spacing" textLength="59" x="555" y="165.7104">properties</text><line style="stroke:#A80036;stroke-width:1.0;stroke-dasharray:1.0,2.0;" x1="614" x2="734" y1="162.4023" y2="162.4023"/><ellipse cx="445" cy="243.8281" rx="3" ry="3" style="stroke:#038048;stroke-width:1.0;fill:none;"/><text fill="#000000" font-family="sans-serif" font-size="11" lengthAdjust="spacing" textLength="108" x="454" y="247.0386">database_endpoint</text><text fill="#000000" font-family="sans-serif" font-size="11" lengthAdjust="spacing" textLength="275" x="454" y="259.8433">type : tosca.capabilities.Endpoint.Database[1..*]</text><line style="stroke:#A80036;stroke-width:1.0;stroke-dasharray:1.0,2.0;" x1="435" x2="552.5" y1="230.4258" y2="230.4258"/><text fill="#000000" font-family="sans-serif" font-size="11" lengthAdjust="spacing" textLength="64" x="552.5" y="233.7339">capabilities</text><line style="stroke:#A80036;stroke-width:1.0;stroke-dasharray:1.0,2.0;" x1="616.5" x2="734" y1="230.4258" y2="230.4258"/><!--MD5=[64b4d8b646f21ae4fe061769428b02aa]
class tosca.capabilities.Endpoint.Database--><rect codeLine="18" fill="#DDDDDD" filter="url(#fc6bmwpl29y4o)" height="48" id="tosca.capabilities.Endpoint.Database" style="stroke:#A80036;stroke-width:1.5;" width="267" x="7" y="167"/><ellipse cx="22" cy="183" fill="#008000" rx="11" ry="11" style="stroke:#A80036;stroke-width:1.0;"/><path d="M24.9688,188.6406 Q24.3906,188.9375 23.75,189.0781 Q23.1094,189.2344 22.4063,189.2344 Q19.9063,189.2344 18.5781,187.5938 Q17.2656,185.9375 17.2656,182.8125 Q17.2656,179.6875 18.5781,178.0313 Q19.9063,176.375 22.4063,176.375 Q23.1094,176.375 23.75,176.5313 Q24.4063,176.6875 24.9688,176.9844 L24.9688,179.7031 Q24.3438,179.125 23.75,178.8594 Q23.1563,178.5781 22.5313,178.5781 Q21.1875,178.5781 20.5,179.6563 Q19.8125,180.7188 19.8125,182.8125 Q19.8125,184.9063 20.5,185.9844 Q21.1875,187.0469 22.5313,187.0469 Q23.1563,187.0469 23.75,186.7813 Q24.3438,186.5 24.9688,185.9219 L24.9688,188.6406 Z " fill="#000000"/><text fill="#000000" font-family="sans-serif" font-size="12" lengthAdjust="spacing" textLength="235" x="36" y="187.1543">tosca.capabilities.Endpoint.Database</text><line style="stroke:#A80036;stroke-width:1.5;" x1="8" x2="273" y1="199" y2="199"/><line style="stroke:#A80036;stroke-width:1.5;" x1="8" x2="273" y1="207" y2="207"/><!--MD5=[dd95aade1d2730ab0b757d3751457af3]
class tosca.nodes.Container.WebApplication--><rect codeLine="22" fill="#FEFECE" filter="url(#fc6bmwpl29y4o)" height="112.0234" id="tosca.nodes.Container.WebApplication" style="stroke:#A80036;stroke-width:1.5;" width="275" x="1096" y="135"/><ellipse cx="1111" cy="151" fill="#008000" rx="11" ry="11" style="stroke:#A80036;stroke-width:1.0;"/><path d="M1106.9844,144.6094 L1109.625,144.6094 L1113.0781,153.6094 L1113.0781,144.6094 L1115.2344,144.6094 L1115.2344,157 L1112.6094,157 L1109.1406,148 L1109.1406,157 L1106.9844,157 L1106.9844,144.6094 Z " fill="#000000"/><text fill="#000000" font-family="sans-serif" font-size="12" lengthAdjust="spacing" textLength="243" x="1125" y="155.1543">tosca.nodes.Container.WebApplication</text><line style="stroke:#A80036;stroke-width:1.5;" x1="1097" x2="1370" y1="167" y2="167"/><ellipse cx="1107" cy="194.8047" rx="3" ry="3" style="stroke:#038048;stroke-width:1.0;fill:none;"/><text fill="#000000" font-family="sans-serif" font-size="11" lengthAdjust="spacing" textLength="115" x="1116" y="198.0151">context_root : string</text><line style="stroke:#A80036;stroke-width:1.0;stroke-dasharray:1.0,2.0;" x1="1097" x2="1204" y1="181.4023" y2="181.4023"/><text fill="#000000" font-family="sans-serif" font-size="11" lengthAdjust="spacing" textLength="59" x="1204" y="184.7104">properties</text><line style="stroke:#A80036;stroke-width:1.0;stroke-dasharray:1.0,2.0;" x1="1263" x2="1370" y1="181.4023" y2="181.4023"/><ellipse cx="1107" cy="224.4141" rx="3" ry="3" style="stroke:#038048;stroke-width:1.0;fill:none;"/><text fill="#000000" font-family="sans-serif" font-size="11" lengthAdjust="spacing" textLength="76" x="1116" y="227.6245">app_endpoint</text><text fill="#000000" font-family="sans-serif" font-size="11" lengthAdjust="spacing" textLength="217" x="1116" y="240.4292">type : tosca.capabilities.Endpoint[1..*]</text><line style="stroke:#A80036;stroke-width:1.0;stroke-dasharray:1.0,2.0;" x1="1097" x2="1201.5" y1="211.0117" y2="211.0117"/><text fill="#000000" font-family="sans-serif" font-size="11" lengthAdjust="spacing" textLength="64" x="1201.5" y="214.3198">capabilities</text><line style="stroke:#A80036;stroke-width:1.0;stroke-dasharray:1.0,2.0;" x1="1265.5" x2="1370" y1="211.0117" y2="211.0117"/><!--MD5=[2beb2447f73f446132538adcfbc9879b]
class tosca.capabilities.Endpoint--><rect codeLine="29" fill="#DDDDDD" filter="url(#fc6bmwpl29y4o)" height="48" id="tosca.capabilities.Endpoint" style="stroke:#A80036;stroke-width:1.5;" width="202" x="770.5" y="167"/><ellipse cx="785.5" cy="183" fill="#008000" rx="11" ry="11" style="stroke:#A80036;stroke-width:1.0;"/><path d="M788.4688,188.6406 Q787.8906,188.9375 787.25,189.0781 Q786.6094,189.2344 785.9063,189.2344 Q783.4063,189.2344 782.0781,187.5938 Q780.7656,185.9375 780.7656,182.8125 Q780.7656,179.6875 782.0781,178.0313 Q783.4063,176.375 785.9063,176.375 Q786.6094,176.375 787.25,176.5313 Q787.9063,176.6875 788.4688,176.9844 L788.4688,179.7031 Q787.8438,179.125 787.25,178.8594 Q786.6563,178.5781 786.0313,178.5781 Q784.6875,178.5781 784,179.6563 Q783.3125,180.7188 783.3125,182.8125 Q783.3125,184.9063 784,185.9844 Q784.6875,187.0469 786.0313,187.0469 Q786.6563,187.0469 787.25,186.7813 Q787.8438,186.5 788.4688,185.9219 L788.4688,188.6406 Z " fill="#000000"/><text fill="#000000" font-family="sans-serif" font-size="12" lengthAdjust="spacing" textLength="170" x="799.5" y="187.1543">tosca.capabilities.Endpoint</text><line style="stroke:#A80036;stroke-width:1.5;" x1="771.5" x2="971.5" y1="199" y2="199"/><line style="stroke:#A80036;stroke-width:1.5;" x1="771.5" x2="971.5" y1="207" y2="207"/><!--MD5=[7a8336edfe018b240757f92ed71b4c16]
reverse link tosca.artifacts.Deployment.Image to tosca.artifacts.Deployment.Image.Container.Docker--><path codeLine="3" d="M1584.5,75.46 C1584.5,105 1584.5,142.92 1584.5,166.85 " fill="none" id="tosca.artifacts.Deployment.Image-backto-tosca.artifacts.Deployment.Image.Container.Docker" style="stroke:#A80036;stroke-width:1.0;"/><polygon fill="none" points="1577.5,75.31,1584.5,55.31,1591.5,75.31,1577.5,75.31" style="stroke:#A80036;stroke-width:1.0;"/><!--MD5=[0ef15f0917c2ab904b5d61fe1e1c2eac]
reverse link tosca.nodes.Container.Application to tosca.nodes.Container.Database--><path codeLine="7" d="M780.01,65.94 C756.89,80.61 728.85,98.4 701.32,115.87 " fill="none" id="tosca.nodes.Container.Application-backto-tosca.nodes.Container.Database" style="stroke:#A80036;stroke-width:1.0;"/><polygon fill="none" points="776.39,59.95,797.03,55.14,783.89,71.77,776.39,59.95" style="stroke:#A80036;stroke-width:1.0;"/><!--MD5=[0f050bf60feccd428c3f6ce3d7d0439f]
link tosca.capabilities.Endpoint.Database to tosca.nodes.Container.Database--><path codeLine="19" d="M274.02,191 C320.1,191 372.27,191 420.51,191 " fill="none" id="tosca.capabilities.Endpoint.Database-to-tosca.nodes.Container.Database" style="stroke:#A80036;stroke-width:1.0;"/><polygon fill="#A80036" points="433.67,191,427.67,187,421.67,191,427.67,195,433.67,191" style="stroke:#A80036;stroke-width:1.0;"/><text fill="#000000" font-family="sans-serif" font-size="13" lengthAdjust="spacing" textLength="123" x="292.5" y="184.0669">database_endpoint</text><text fill="#000000" font-family="sans-serif" font-size="13" lengthAdjust="spacing" textLength="23" x="281.9508" y="203.4807">1..*</text><!--MD5=[75268629e0f197ebc37c66ec0a0a7c66]
reverse link tosca.nodes.Container.Application to tosca.nodes.Container.WebApplication--><path codeLine="21" d="M910.85,62.55 C963.19,83.23 1033.79,111.11 1095.6,135.53 " fill="none" id="tosca.nodes.Container.Application-backto-tosca.nodes.Container.WebApplication" style="stroke:#A80036;stroke-width:1.0;"/><polygon fill="none" points="908.12,69,892.09,55.14,913.26,55.98,908.12,69" style="stroke:#A80036;stroke-width:1.0;"/><!--MD5=[fe841dc8731107ba511552f1e0385a2c]
link tosca.capabilities.Endpoint to tosca.nodes.Container.WebApplication--><path codeLine="30" d="M972.82,191 C1006.97,191 1045.84,191 1082.95,191 " fill="none" id="tosca.capabilities.Endpoint-to-tosca.nodes.Container.WebApplication" style="stroke:#A80036;stroke-width:1.0;"/><polygon fill="#A80036" points="1096,191,1090,187,1084,191,1090,195,1096,191" style="stroke:#A80036;stroke-width:1.0;"/><text fill="#000000" font-family="sans-serif" font-size="13" lengthAdjust="spacing" textLength="87" x="990.75" y="184.0669">app_endpoint</text><text fill="#000000" font-family="sans-serif" font-size="13" lengthAdjust="spacing" textLength="23" x="980.4001" y="203.5753">1..*</text><!--MD5=[58797d0ec3ff7cac1ebf1c6455e468ab]
@startuml
set namespaceSeparator none
class "tosca.artifacts.Deployment.Image" << (A,green) >> #DDDDDD
"tosca.artifacts.Deployment.Image" <|- - "tosca.artifacts.Deployment.Image.Container.Docker"
class "tosca.artifacts.Deployment.Image.Container.Docker" << (A,green) >> {
}
class "tosca.nodes.Container.Application" << (N,green) >> #DDDDDD
"tosca.nodes.Container.Application" <|- - "tosca.nodes.Container.Database"
class "tosca.nodes.Container.Database" << (N,green) >> {
.. properties ..
+user : string
+port : integer
+name : string
+password : string
.. capabilities ..
+database_endpoint
 type : tosca.capabilities.Endpoint.Database[1..*]
}
class "tosca.capabilities.Endpoint.Database" << (C,green) >> #DDDDDD
"tosca.capabilities.Endpoint.Database" "1..*" -* "tosca.nodes.Container.Database" : database_endpoint
class "tosca.nodes.Container.Application" << (N,green) >> #DDDDDD
"tosca.nodes.Container.Application" <|- - "tosca.nodes.Container.WebApplication"
class "tosca.nodes.Container.WebApplication" << (N,green) >> {
.. properties ..
+context_root : string
.. capabilities ..
+app_endpoint
 type : tosca.capabilities.Endpoint[1..*]
}
class "tosca.capabilities.Endpoint" << (C,green) >> #DDDDDD
"tosca.capabilities.Endpoint" "1..*" -* "tosca.nodes.Container.WebApplication" : app_endpoint
@enduml

PlantUML version 1.2021.13(Mon Nov 01 11:38:45 GMT 2021)
(GPL source distribution)
Java Runtime: OpenJDK Runtime Environment
JVM: OpenJDK 64-Bit Server VM
Default Encoding: UTF-8
Language: en
Country: US
--></g></svg>