<?xml version="1.0" encoding="UTF-8" standalone="no"?><svg xmlns="http://www.w3.org/2000/svg" xmlns:xlink="http://www.w3.org/1999/xlink" contentScriptType="application/ecmascript" contentStyleType="text/css" height="405px" preserveAspectRatio="none" style="width:1441px;height:405px;background:#FFFFFF;" version="1.1" viewBox="0 0 1441 405" width="1441px" zoomAndPan="magnify"><defs><filter height="300%" id="fmv4zbbb5g197" width="300%" x="-1" y="-1"><feGaussianBlur result="blurOut" stdDeviation="2.0"/><feColorMatrix in="blurOut" result="blurOut2" type="matrix" values="0 0 0 0 0 0 0 0 0 0 0 0 0 0 0 0 0 0 .4 0"/><feOffset dx="4.0" dy="4.0" in="blurOut2" result="blurOut3"/><feBlend in="SourceGraphic" in2="blurOut3" mode="normal"/></filter></defs><g><!--MD5=[9a8f4fba085d2142c4d4bd042069a00c]
class tosca.nodes.Container.Database--><rect codeLine="2" fill="#DDDDDD" filter="url(#fmv4zbbb5g197)" height="48" id="tosca.nodes.Container.Database" style="stroke:#A80036;stroke-width:1.5;" width="240" x="863" y="7"/><ellipse cx="878" cy="23" fill="#008000" rx="11" ry="11" style="stroke:#A80036;stroke-width:1.0;"/><path d="M873.9844,16.6094 L876.625,16.6094 L880.0781,25.6094 L880.0781,16.6094 L882.2344,16.6094 L882.2344,29 L879.6094,29 L876.1406,20 L876.1406,29 L873.9844,29 L873.9844,16.6094 Z " fill="#000000"/><text fill="#000000" font-family="sans-serif" font-size="12" lengthAdjust="spacing" textLength="208" x="892" y="27.1543">tosca.nodes.Container.Database</text><line style="stroke:#A80036;stroke-width:1.5;" x1="864" x2="1102" y1="39" y2="39"/><line style="stroke:#A80036;stroke-width:1.5;" x1="864" x2="1102" y1="47" y2="47"/><!--MD5=[97204a5559efccf562f569c8fb8f21cf]
class tosca.nodes.Container.Database.MySQL--><rect codeLine="4" fill="#FEFECE" filter="url(#fmv4zbbb5g197)" height="95.2188" id="tosca.nodes.Container.Database.MySQL" style="stroke:#A80036;stroke-width:1.5;" width="283" x="841.5" y="151.5"/><ellipse cx="856.5" cy="167.5" fill="#008000" rx="11" ry="11" style="stroke:#A80036;stroke-width:1.0;"/><path d="M852.4844,161.1094 L855.125,161.1094 L858.5781,170.1094 L858.5781,161.1094 L860.7344,161.1094 L860.7344,173.5 L858.1094,173.5 L854.6406,164.5 L854.6406,173.5 L852.4844,173.5 L852.4844,161.1094 Z " fill="#000000"/><text fill="#000000" font-family="sans-serif" font-size="12" lengthAdjust="spacing" textLength="251" x="870.5" y="171.6543">tosca.nodes.Container.Database.MySQL</text><line style="stroke:#A80036;stroke-width:1.5;" x1="842.5" x2="1123.5" y1="183.5" y2="183.5"/><ellipse cx="852.5" cy="211.3047" rx="3" ry="3" style="stroke:#038048;stroke-width:1.0;fill:none;"/><text fill="#000000" font-family="sans-serif" font-size="11" font-weight="bold" lengthAdjust="spacing" textLength="46" x="861.5" y="214.5151">volume</text><text fill="#000000" font-family="sans-serif" font-size="11" lengthAdjust="spacing" textLength="247" x="861.5" y="227.3198">capability : tosca.capabilities.Attachment[1]</text><text fill="#000000" font-family="sans-serif" font-size="11" lengthAdjust="spacing" textLength="255" x="861.5" y="240.1245">relationship : tosca.relationships.AttachesTo</text><line style="stroke:#A80036;stroke-width:1.0;stroke-dasharray:1.0,2.0;" x1="842.5" x2="944.5" y1="197.9023" y2="197.9023"/><text fill="#000000" font-family="sans-serif" font-size="11" lengthAdjust="spacing" textLength="77" x="944.5" y="201.2104">requirements</text><line style="stroke:#A80036;stroke-width:1.0;stroke-dasharray:1.0,2.0;" x1="1021.5" x2="1123.5" y1="197.9023" y2="197.9023"/><!--MD5=[ce9783f5ecc64ae0ba232a04fa16cf96]
class tosca.capabilities.Attachment--><rect codeLine="29" fill="#DDDDDD" filter="url(#fmv4zbbb5g197)" height="48" id="tosca.capabilities.Attachment" style="stroke:#A80036;stroke-width:1.5;" width="219" x="1208.5" y="175"/><ellipse cx="1223.5" cy="191" fill="#008000" rx="11" ry="11" style="stroke:#A80036;stroke-width:1.0;"/><path d="M1226.4688,196.6406 Q1225.8906,196.9375 1225.25,197.0781 Q1224.6094,197.2344 1223.9063,197.2344 Q1221.4063,197.2344 1220.0781,195.5938 Q1218.7656,193.9375 1218.7656,190.8125 Q1218.7656,187.6875 1220.0781,186.0313 Q1221.4063,184.375 1223.9063,184.375 Q1224.6094,184.375 1225.25,184.5313 Q1225.9063,184.6875 1226.4688,184.9844 L1226.4688,187.7031 Q1225.8438,187.125 1225.25,186.8594 Q1224.6563,186.5781 1224.0313,186.5781 Q1222.6875,186.5781 1222,187.6563 Q1221.3125,188.7188 1221.3125,190.8125 Q1221.3125,192.9063 1222,193.9844 Q1222.6875,195.0469 1224.0313,195.0469 Q1224.6563,195.0469 1225.25,194.7813 Q1225.8438,194.5 1226.4688,193.9219 L1226.4688,196.6406 Z " fill="#000000"/><text fill="#000000" font-family="sans-serif" font-size="12" lengthAdjust="spacing" textLength="187" x="1237.5" y="195.1543">tosca.capabilities.Attachment</text><line style="stroke:#A80036;stroke-width:1.5;" x1="1209.5" x2="1426.5" y1="207" y2="207"/><line style="stroke:#A80036;stroke-width:1.5;" x1="1209.5" x2="1426.5" y1="215" y2="215"/><!--MD5=[7e5ccb913ad4872bc2e95462c5c9fac2]
class tosca.relationships.AttachesTo--><rect codeLine="31" fill="#DDDDDD" filter="url(#fmv4zbbb5g197)" height="48" id="tosca.relationships.AttachesTo" style="stroke:#A80036;stroke-width:1.5;" width="227" x="648.5" y="343"/><ellipse cx="663.5" cy="359" fill="#008000" rx="11" ry="11" style="stroke:#A80036;stroke-width:1.0;"/><path d="M664.7031,359.1406 Q665.0625,359.2188 665.3281,359.5 Q665.6094,359.7656 666,360.5469 L668.2344,365 L665.5469,365 L664.0469,361.875 Q663.9844,361.7344 663.875,361.5 Q663.2188,360.1094 662.3281,360.1094 L661.5469,360.1094 L661.5469,365 L659.1094,365 L659.1094,352.6094 L662.6406,352.6094 Q665.0313,352.6094 666.0625,353.4531 Q667.1094,354.2969 667.1094,356.2031 Q667.1094,357.4844 666.4844,358.25 Q665.875,359 664.7031,359.1406 Z M661.5469,354.6719 L661.5469,358.0469 L662.7031,358.0469 Q663.7188,358.0469 664.1406,357.6563 Q664.5781,357.25 664.5781,356.3438 Q664.5781,355.4531 664.1406,355.0625 Q663.7188,354.6719 662.7031,354.6719 L661.5469,354.6719 Z " fill="#000000"/><text fill="#000000" font-family="sans-serif" font-size="12" lengthAdjust="spacing" textLength="195" x="677.5" y="363.1543">tosca.relationships.AttachesTo</text><line style="stroke:#A80036;stroke-width:1.5;" x1="649.5" x2="874.5" y1="375" y2="375"/><line style="stroke:#A80036;stroke-width:1.5;" x1="649.5" x2="874.5" y1="383" y2="383"/><!--MD5=[dd95aade1d2730ab0b757d3751457af3]
class tosca.nodes.Container.WebApplication--><rect codeLine="14" fill="#DDDDDD" filter="url(#fmv4zbbb5g197)" height="48" id="tosca.nodes.Container.WebApplication" style="stroke:#A80036;stroke-width:1.5;" width="275" x="42.5" y="7"/><ellipse cx="57.5" cy="23" fill="#008000" rx="11" ry="11" style="stroke:#A80036;stroke-width:1.0;"/><path d="M53.4844,16.6094 L56.125,16.6094 L59.5781,25.6094 L59.5781,16.6094 L61.7344,16.6094 L61.7344,29 L59.1094,29 L55.6406,20 L55.6406,29 L53.4844,29 L53.4844,16.6094 Z " fill="#000000"/><text fill="#000000" font-family="sans-serif" font-size="12" lengthAdjust="spacing" textLength="243" x="71.5" y="27.1543">tosca.nodes.Container.WebApplication</text><line style="stroke:#A80036;stroke-width:1.5;" x1="43.5" x2="316.5" y1="39" y2="39"/><line style="stroke:#A80036;stroke-width:1.5;" x1="43.5" x2="316.5" y1="47" y2="47"/><!--MD5=[cc2f2638b637d94ccf142a8ff0ba229b]
class tosca.nodes.Container.WebApplication.Wordpress--><rect codeLine="16" fill="#FEFECE" filter="url(#fmv4zbbb5g197)" height="133.6328" id="tosca.nodes.Container.WebApplication.Wordpress" style="stroke:#A80036;stroke-width:1.5;" width="346" x="7" y="132"/><ellipse cx="22" cy="148" fill="#008000" rx="11" ry="11" style="stroke:#A80036;stroke-width:1.0;"/><path d="M17.9844,141.6094 L20.625,141.6094 L24.0781,150.6094 L24.0781,141.6094 L26.2344,141.6094 L26.2344,154 L23.6094,154 L20.1406,145 L20.1406,154 L17.9844,154 L17.9844,141.6094 Z " fill="#000000"/><text fill="#000000" font-family="sans-serif" font-size="12" lengthAdjust="spacing" textLength="314" x="36" y="152.1543">tosca.nodes.Container.WebApplication.Wordpress</text><line style="stroke:#A80036;stroke-width:1.5;" x1="8" x2="352" y1="164" y2="164"/><ellipse cx="18" cy="191.8047" rx="3" ry="3" style="stroke:#038048;stroke-width:1.0;fill:none;"/><text fill="#000000" font-family="sans-serif" font-size="11" font-weight="bold" lengthAdjust="spacing" textLength="145" x="27" y="195.0151">WORDPRESS_DB_HOST</text><text fill="#000000" font-family="sans-serif" font-size="11" lengthAdjust="spacing" textLength="290" x="27" y="207.8198">capability : tosca.capabilities.Endpoint.Database[1]</text><text fill="#000000" font-family="sans-serif" font-size="11" lengthAdjust="spacing" textLength="259" x="27" y="220.6245">relationship : tosca.relationships.ConnectsTo</text><ellipse cx="18" cy="230.2188" rx="3" ry="3" style="stroke:#038048;stroke-width:1.0;fill:none;"/><text fill="#000000" font-family="sans-serif" font-size="11" font-weight="bold" lengthAdjust="spacing" textLength="46" x="27" y="233.4292">volume</text><text fill="#000000" font-family="sans-serif" font-size="11" lengthAdjust="spacing" textLength="247" x="27" y="246.2339">capability : tosca.capabilities.Attachment[1]</text><text fill="#000000" font-family="sans-serif" font-size="11" lengthAdjust="spacing" textLength="255" x="27" y="259.0386">relationship : tosca.relationships.AttachesTo</text><line style="stroke:#A80036;stroke-width:1.0;stroke-dasharray:1.0,2.0;" x1="8" x2="141.5" y1="178.4023" y2="178.4023"/><text fill="#000000" font-family="sans-serif" font-size="11" lengthAdjust="spacing" textLength="77" x="141.5" y="181.7104">requirements</text><line style="stroke:#A80036;stroke-width:1.0;stroke-dasharray:1.0,2.0;" x1="218.5" x2="352" y1="178.4023" y2="178.4023"/><!--MD5=[64b4d8b646f21ae4fe061769428b02aa]
class tosca.capabilities.Endpoint.Database--><rect codeLine="25" fill="#DDDDDD" filter="url(#fmv4zbbb5g197)" height="48" id="tosca.capabilities.Endpoint.Database" style="stroke:#A80036;stroke-width:1.5;" width="267" x="539.5" y="175"/><ellipse cx="554.5" cy="191" fill="#008000" rx="11" ry="11" style="stroke:#A80036;stroke-width:1.0;"/><path d="M557.4688,196.6406 Q556.8906,196.9375 556.25,197.0781 Q555.6094,197.2344 554.9063,197.2344 Q552.4063,197.2344 551.0781,195.5938 Q549.7656,193.9375 549.7656,190.8125 Q549.7656,187.6875 551.0781,186.0313 Q552.4063,184.375 554.9063,184.375 Q555.6094,184.375 556.25,184.5313 Q556.9063,184.6875 557.4688,184.9844 L557.4688,187.7031 Q556.8438,187.125 556.25,186.8594 Q555.6563,186.5781 555.0313,186.5781 Q553.6875,186.5781 553,187.6563 Q552.3125,188.7188 552.3125,190.8125 Q552.3125,192.9063 553,193.9844 Q553.6875,195.0469 555.0313,195.0469 Q555.6563,195.0469 556.25,194.7813 Q556.8438,194.5 557.4688,193.9219 L557.4688,196.6406 Z " fill="#000000"/><text fill="#000000" font-family="sans-serif" font-size="12" lengthAdjust="spacing" textLength="235" x="568.5" y="195.1543">tosca.capabilities.Endpoint.Database</text><line style="stroke:#A80036;stroke-width:1.5;" x1="540.5" x2="805.5" y1="207" y2="207"/><line style="stroke:#A80036;stroke-width:1.5;" x1="540.5" x2="805.5" y1="215" y2="215"/><!--MD5=[092ea08713e9f0a14d7fdee487f2ff56]
class tosca.relationships.ConnectsTo--><rect codeLine="27" fill="#DDDDDD" filter="url(#fmv4zbbb5g197)" height="48" id="tosca.relationships.ConnectsTo" style="stroke:#A80036;stroke-width:1.5;" width="230" x="65" y="343"/><ellipse cx="80" cy="359" fill="#008000" rx="11" ry="11" style="stroke:#A80036;stroke-width:1.0;"/><path d="M81.2031,359.1406 Q81.5625,359.2188 81.8281,359.5 Q82.1094,359.7656 82.5,360.5469 L84.7344,365 L82.0469,365 L80.5469,361.875 Q80.4844,361.7344 80.375,361.5 Q79.7188,360.1094 78.8281,360.1094 L78.0469,360.1094 L78.0469,365 L75.6094,365 L75.6094,352.6094 L79.1406,352.6094 Q81.5313,352.6094 82.5625,353.4531 Q83.6094,354.2969 83.6094,356.2031 Q83.6094,357.4844 82.9844,358.25 Q82.375,359 81.2031,359.1406 Z M78.0469,354.6719 L78.0469,358.0469 L79.2031,358.0469 Q80.2188,358.0469 80.6406,357.6563 Q81.0781,357.25 81.0781,356.3438 Q81.0781,355.4531 80.6406,355.0625 Q80.2188,354.6719 79.2031,354.6719 L78.0469,354.6719 Z " fill="#000000"/><text fill="#000000" font-family="sans-serif" font-size="12" lengthAdjust="spacing" textLength="198" x="94" y="363.1543">tosca.relationships.ConnectsTo</text><line style="stroke:#A80036;stroke-width:1.5;" x1="66" x2="294" y1="375" y2="375"/><line style="stroke:#A80036;stroke-width:1.5;" x1="66" x2="294" y1="383" y2="383"/><!--MD5=[93fb86a21a8599c453a722816a321787]
reverse link tosca.nodes.Container.Database to tosca.nodes.Container.Database.MySQL--><path codeLine="3" d="M983,75.42 C983,98.72 983,127.46 983,151.25 " fill="none" id="tosca.nodes.Container.Database-backto-tosca.nodes.Container.Database.MySQL" style="stroke:#A80036;stroke-width:1.0;"/><polygon fill="none" points="976,75.08,983,55.08,990,75.08,976,75.08" style="stroke:#A80036;stroke-width:1.0;"/><!--MD5=[7d607cbb221c2b36c64fb6a4456028ef]
reverse link tosca.nodes.Container.Database.MySQL to tosca.capabilities.Attachment--><path codeLine="11" d="M1137.79,199 C1161.64,199 1185.83,199 1208.43,199 " fill="none" id="tosca.nodes.Container.Database.MySQL-backto-tosca.capabilities.Attachment" style="stroke:#A80036;stroke-width:1.0;"/><polygon fill="#A80036" points="1124.58,199,1130.58,203,1136.58,199,1130.58,195,1124.58,199" style="stroke:#A80036;stroke-width:1.0;"/><text fill="#000000" font-family="sans-serif" font-size="13" lengthAdjust="spacing" textLength="47" x="1143" y="192.0669">volume</text><text fill="#000000" font-family="sans-serif" font-size="13" lengthAdjust="spacing" textLength="8" x="1192.4446" y="195.5442">1</text><!--MD5=[fbb00d448d16af0f370f166a943527a7]
link tosca.nodes.Container.Database.MySQL to tosca.relationships.AttachesTo--><path codeLine="13" d="M920.85,246.68 C880.9,276.69 830.44,314.59 797.24,339.53 " fill="none" id="tosca.nodes.Container.Database.MySQL-to-tosca.relationships.AttachesTo" style="stroke:#A80036;stroke-width:1.0;stroke-dasharray:7.0,7.0;"/><polygon fill="#A80036" points="792.88,342.81,802.48,340.61,796.88,339.81,797.68,334.21,792.88,342.81" style="stroke:#A80036;stroke-width:1.0;"/><text fill="#000000" font-family="sans-serif" font-size="13" lengthAdjust="spacing" textLength="125" x="854" y="309.0669">volume.relationship</text><!--MD5=[afc74ecff7be2318c20edfee47413f54]
reverse link tosca.nodes.Container.WebApplication to tosca.nodes.Container.WebApplication.Wordpress--><path codeLine="15" d="M180,75.33 C180,92.57 180,112.79 180,131.79 " fill="none" id="tosca.nodes.Container.WebApplication-backto-tosca.nodes.Container.WebApplication.Wordpress" style="stroke:#A80036;stroke-width:1.0;"/><polygon fill="none" points="173,75.08,180,55.08,187,75.08,173,75.08" style="stroke:#A80036;stroke-width:1.0;"/><!--MD5=[ce6a6467fff2d6bc764d8a2e3b59fca8]
reverse link tosca.nodes.Container.WebApplication.Wordpress to tosca.capabilities.Endpoint.Database--><path codeLine="26" d="M366.48,199 C424.04,199 486.26,199 539.5,199 " fill="none" id="tosca.nodes.Container.WebApplication.Wordpress-backto-tosca.capabilities.Endpoint.Database" style="stroke:#A80036;stroke-width:1.0;"/><polygon fill="#A80036" points="353.12,199,359.12,203,365.12,199,359.12,195,353.12,199" style="stroke:#A80036;stroke-width:1.0;"/><text fill="#000000" font-family="sans-serif" font-size="13" lengthAdjust="spacing" textLength="150" x="371.25" y="192.0669">WORDPRESS_DB_HOST</text><text fill="#000000" font-family="sans-serif" font-size="13" lengthAdjust="spacing" textLength="8" x="523.5508" y="195.6371">1</text><!--MD5=[0f5c6f35a0d6f9ad2fbefc692212d732]
link tosca.nodes.Container.WebApplication.Wordpress to tosca.relationships.ConnectsTo--><path codeLine="28" d="M180,266.08 C180,290.98 180,318 180,337.66 " fill="none" id="tosca.nodes.Container.WebApplication.Wordpress-to-tosca.relationships.ConnectsTo" style="stroke:#A80036;stroke-width:1.0;stroke-dasharray:7.0,7.0;"/><polygon fill="#A80036" points="180,342.75,184,333.75,180,337.75,176,333.75,180,342.75" style="stroke:#A80036;stroke-width:1.0;"/><text fill="#000000" font-family="sans-serif" font-size="13" lengthAdjust="spacing" textLength="228" x="181" y="309.0669">WORDPRESS_DB_HOST.relationship</text><!--MD5=[d054257c2f755fa209b1745942cafdf5]
reverse link tosca.nodes.Container.WebApplication.Wordpress to tosca.capabilities.Attachment--><path codeLine="30" d="M366.27,157.6 C416.59,147.77 471.18,138.31 522,132 C769.57,101.28 833.12,108.67 1082.5,102 C1104.27,101.42 1110.35,96.83 1131.5,102 C1188.75,116 1247.99,150.94 1283.93,174.83 " fill="none" id="tosca.nodes.Container.WebApplication.Wordpress-backto-tosca.capabilities.Attachment" style="stroke:#A80036;stroke-width:1.0;"/><polygon fill="#A80036" points="353.23,160.18,359.8908,162.9429,365.003,157.8571,358.3422,155.0942,353.23,160.18" style="stroke:#A80036;stroke-width:1.0;"/><text fill="#000000" font-family="sans-serif" font-size="13" lengthAdjust="spacing" textLength="47" x="1083.5" y="98.0669">volume</text><text fill="#000000" font-family="sans-serif" font-size="13" lengthAdjust="spacing" textLength="8" x="1266.1746" y="163.7985">1</text><!--MD5=[d86df7d81180a44ad2a96badce9ad7a6]
link tosca.nodes.Container.WebApplication.Wordpress to tosca.relationships.AttachesTo--><path codeLine="32" d="M353.04,249.36 C459.49,279.72 591.28,317.31 675.98,341.47 " fill="none" id="tosca.nodes.Container.WebApplication.Wordpress-to-tosca.relationships.AttachesTo" style="stroke:#A80036;stroke-width:1.0;stroke-dasharray:7.0,7.0;"/><polygon fill="#A80036" points="680.99,342.89,673.4302,336.5773,676.1813,341.5202,671.2385,344.2713,680.99,342.89" style="stroke:#A80036;stroke-width:1.0;"/><text fill="#000000" font-family="sans-serif" font-size="13" lengthAdjust="spacing" textLength="125" x="575" y="309.0669">volume.relationship</text><!--MD5=[a17cda4c121f09354e41358dfa621f9e]
@startuml
set namespaceSeparator none
class "tosca.nodes.Container.Database" << (N,green) >> #DDDDDD
"tosca.nodes.Container.Database" <|- - "tosca.nodes.Container.Database.MySQL"
class "tosca.nodes.Container.Database.MySQL" << (N,green) >> {
.. requirements ..
+<b>volume
 capability : tosca.capabilities.Attachment[1]
 relationship : tosca.relationships.AttachesTo
}
class "tosca.capabilities.Attachment" << (C,green) >> #DDDDDD
"tosca.nodes.Container.Database.MySQL" *- "1" "tosca.capabilities.Attachment" : volume
class "tosca.relationships.AttachesTo" << (R,green) >> #DDDDDD
"tosca.nodes.Container.Database.MySQL" ..> "tosca.relationships.AttachesTo" : volume.relationship
class "tosca.nodes.Container.WebApplication" << (N,green) >> #DDDDDD
"tosca.nodes.Container.WebApplication" <|- - "tosca.nodes.Container.WebApplication.Wordpress"
class "tosca.nodes.Container.WebApplication.Wordpress" << (N,green) >> {
.. requirements ..
+<b>WORDPRESS_DB_HOST
 capability : tosca.capabilities.Endpoint.Database[1]
 relationship : tosca.relationships.ConnectsTo
+<b>volume
 capability : tosca.capabilities.Attachment[1]
 relationship : tosca.relationships.AttachesTo
}
class "tosca.capabilities.Endpoint.Database" << (C,green) >> #DDDDDD
"tosca.nodes.Container.WebApplication.Wordpress" *- "1" "tosca.capabilities.Endpoint.Database" : WORDPRESS_DB_HOST
class "tosca.relationships.ConnectsTo" << (R,green) >> #DDDDDD
"tosca.nodes.Container.WebApplication.Wordpress" ..> "tosca.relationships.ConnectsTo" : WORDPRESS_DB_HOST.relationship
class "tosca.capabilities.Attachment" << (C,green) >> #DDDDDD
"tosca.nodes.Container.WebApplication.Wordpress" *- "1" "tosca.capabilities.Attachment" : volume
class "tosca.relationships.AttachesTo" << (R,green) >> #DDDDDD
"tosca.nodes.Container.WebApplication.Wordpress" ..> "tosca.relationships.AttachesTo" : volume.relationship
@enduml

PlantUML version 1.2021.13(Mon Nov 01 11:38:45 GMT 2021)
(GPL source distribution)
Java Runtime: OpenJDK Runtime Environment
JVM: OpenJDK 64-Bit Server VM
Default Encoding: UTF-8
Language: en
Country: US
--></g></svg>